<?xml version="1.0" encoding="UTF-8"?>
<svg id="_图层_2" data-name="图层 2" xmlns="http://www.w3.org/2000/svg" viewBox="0 0 78 85.76">
  <defs>
    <style>
      .cls-1 {
        fill: #040000;
      }

      .cls-2 {
        fill: #231815;
      }
    </style>
  </defs>
  <g id="_レイヤー_1" data-name="レイヤー 1">
    <g>
      <path d="M.35,85.75c-.12-.06-.23-.11-.35-.17,.11,.06,.23,.12,.34,.18h0Z"/>
      <g>
        <path d="M47.71,28.04c0,1.05,.01,2.1,0,3.15-.01,.52-.06,1.05-.13,1.56-.08,.59-.55,.91-1.14,.73-1.16-.35-2.34-.56-3.54-.57-1.42-.01-2.84,.04-4.26,.13-.43,.03-.85,.27-1.27,.41-.28,.09-.59-.09-.73-.38-.48-.97-.67-2.01-.45-3.06,.37-1.71,.28-3.43,.31-5.15,.01-.9,.04-1.8,.11-2.69,.04-.44,.19-.87,.3-1.3,.06-.22,.32-.39,.52-.35,.15,.03,.3,.05,.43,.1,.65,.26,1.31,.28,1.98,.11,.81-.21,1.63-.24,2.45-.04,1.42,.34,2.82,.3,4.2-.2,.31-.11,.61,.1,.67,.42,.3,1.62,.57,3.24,.5,4.9-.03,.75,0,1.5,0,2.25h.06Z"/>
        <g>
          <path class="cls-1" d="M18.42,32.58l-4.88-3.45,2.09-3.67c-1.26-.03-2.51-.1-3.76-.29-.46-.07-.88,.31-.94,.77-.13,.98-.05,1.94,.11,2.91,.3,1.78,.83,3.5,1.4,5.2,.63,1.87,1.54,3.58,2.7,5.16,.58,.78,1.17,1.56,1.76,2.33,.69,.89,1.32,1.82,1.73,2.88,.13,.35,.31,.68,.51,1,.62,1.01,1.96,1.31,2.95,.66,.07-.04,.13-.1,.2-.14l.57-5.82-6.1-2.08,1.66-5.46Zm2,8.51c.35,0,.63,.28,.63,.63s-.28,.63-.63,.63-.63-.28-.63-.63,.28-.63,.63-.63Zm-4.71-6.93c-.35,0-.63-.28-.63-.63s.28-.63,.63-.63,.63,.28,.63,.63-.28,.63-.63,.63Z"/>
          <path class="cls-1" d="M34.06,25.53c-.22-.04-.44-.1-.66-.11-1.13-.03-2.24-.21-3.36-.3-2.33-.2-4.68-.28-7,.06-1.1,.16-2.22,.25-3.33,.27-1.01,.01-2.03,.03-3.04,.03-.12,0-.23,.06-.29,.17l-1.71,3.01c-.09,.15-.04,.34,.1,.44l4.32,3.06c.12,.08,.17,.23,.13,.37l-1.44,4.75c-.05,.17,.04,.36,.21,.42l5.42,1.84c.15,.05,.24,.2,.23,.35l-.44,4.43c-.03,.32,.35,.5,.58,.27,.37-.37,.73-.73,1.09-1.1,1.49-1.52,2.67-3.32,3.5-5.28,1.13-2.69,2.33-5.35,4-7.85,.19-.29-.12-.64-.43-.48-.22,.11-.43,.21-.65,.3-.9,.38-2.31,1.13-3.15,1.63-1.15,.68-.35,.15-1.94,1.09-.71,.42-1.38-.67-.34-1.38,.57-.37,.89-.52,1.49-.81,2.64-1.26,4.24-2.63,6.96-3.74,.29-.12,.47-.36,.49-.69,.02-.33-.31-.67-.72-.75Zm-16.21,3.05c-.35,0-.63-.28-.63-.63s.28-.63,.63-.63,.63,.28,.63,.63-.28,.63-.63,.63Zm3.2,8.07c-.35,0-.63-.28-.63-.63s.28-.63,.63-.63,.63,.28,.63,.63-.28,.63-.63,.63Z"/>
        </g>
        <g>
          <path class="cls-1" d="M17.95,15.28l5.12-2.54-.83-5.92,4.62-1.12c-.87-.77-1.81-1.45-2.74-2.15-.18-.13-.39-.21-.6-.31-.39-.19-.97-.1-1.26,.21-.2,.22-.4,.45-.57,.69-.88,1.23-1.54,2.57-2.19,3.92-.79,1.62-1.7,3.17-2.83,4.58-.42,.52-.78,1.1-1.15,1.67-.57,.89-.96,1.85-1.14,2.91-.21,1.19-.38,2.37-.37,3.58,.03,.75,.06,1.5,.11,2.24,.03,.43,.47,.8,.92,.85,.71,.09,1.41,.02,2.12-.07l3.48-2.69-2.67-5.86Zm2.13-4.33c.26-.24,.66-.23,.9,.03,.24,.26,.23,.66-.03,.9-.26,.24-.66,.23-.9-.03-.24-.26-.23-.66,.03-.9Zm-2.76,9.95c-.24-.26-.23-.66,.03-.9,.26-.24,.66-.23,.9,.03,.24,.26,.23,.66-.03,.9-.26,.24-.66,.23-.9-.03Z"/>
          <path class="cls-1" d="M36.24,17.52c-.21-1.19-.53-2.35-1.2-3.37-.95-1.44-1.94-2.88-3.32-3.94-1.49-1.15-2.8-2.49-4.13-3.81-.03-.03-.07-.06-.1-.1l-4.45,1.08,.81,5.78-4.95,2.46,2.62,5.75-2.98,2.3c.47-.05,.93-.09,1.4-.1,2.47-.06,4.95-.07,7.42-.1,2.18-.03,4.35,0,6.47,.63,.2,.06,.45,.04,.66,0,.13-.02,.3-.14,.35-.25,.39-.89,.13-1.9-.61-2.4-.37-.25-.77-.46-1.15-.71-.69-.47-1.27-1.06-1.65-1.81-.13-.26-.17-.56-.24-.85-.05-.2,.25-.4,.47-.31,.2,.09,.4,.19,.59,.31,2.51,1.55,3.15,1.41,3.29,1.27,.5-.5,.82-1.08,.69-1.82Zm-13.44-.04c-.26,.24-.66,.23-.9-.03-.24-.26-.23-.66,.03-.9s.66-.23,.9,.03c.24,.26,.23,.66-.03,.9Zm3.68-7.87c-.26,.24-.66,.23-.9-.03-.24-.26-.23-.66,.03-.9,.26-.24,.66-.23,.9,.03,.24,.26,.23,.66-.03,.9Z"/>
        </g>
        <path class="cls-2" d="M17.29,50.83h0c-.1,0-.2-.04-.27-.12-.51-.57-.79-1.35-1.06-2.1-.25-.71-.49-1.38-.89-1.85-.4-.46-1.02-.78-1.68-1.12-.83-.43-1.68-.87-2.17-1.64-.47-.75-.51-1.69-.54-2.61-.03-.76-.05-1.48-.31-2.05-.25-.55-.75-1.04-1.29-1.56-.67-.64-1.36-1.31-1.61-2.18-.24-.84-.02-1.75,.2-2.64,.18-.74,.35-1.44,.26-2.07-.09-.6-.45-1.2-.83-1.85-.47-.79-.96-1.62-.98-2.52-.02-.91,.44-1.75,.89-2.56,.36-.65,.7-1.27,.77-1.87,.07-.63-.12-1.33-.33-2.06-.25-.87-.5-1.78-.29-2.63,.22-.88,.89-1.57,1.53-2.23,.52-.53,1.01-1.04,1.24-1.6,.24-.58,.24-1.3,.24-2.06,0-.91,0-1.86,.45-2.62,.46-.79,1.3-1.26,2.11-1.72,.65-.37,1.26-.71,1.64-1.18,.39-.49,.6-1.16,.82-1.88,.27-.88,.56-1.79,1.22-2.39,.89-.81,2.97-1.36,4.55-1.67h.07c.05-.03,.11-.03,.17-.02,.1,.02,.18,.08,.23,.17l2.49,4.13c.1,.17,.05,.4-.12,.5-.17,.1-.4,.05-.5-.12l-2.36-3.91c-2,.41-3.47,.94-4.04,1.46-.51,.47-.75,1.24-1.01,2.07-.23,.75-.47,1.53-.95,2.12-.47,.58-1.17,.98-1.85,1.36-.76,.43-1.48,.83-1.84,1.45-.35,.59-.35,1.4-.35,2.26,0,.8,0,1.62-.29,2.33-.28,.69-.84,1.27-1.39,1.84-.61,.62-1.18,1.21-1.35,1.9-.17,.66,.05,1.43,.28,2.25,.22,.77,.44,1.57,.35,2.34-.08,.74-.48,1.45-.85,2.14-.42,.76-.81,1.48-.8,2.19s.43,1.42,.88,2.16c.4,.67,.82,1.37,.93,2.11,.11,.77-.08,1.58-.27,2.35-.2,.83-.39,1.61-.2,2.26,.2,.69,.79,1.25,1.42,1.86,.56,.54,1.15,1.1,1.45,1.79,.31,.7,.34,1.53,.37,2.32,.03,.86,.06,1.66,.43,2.24,.38,.6,1.11,.98,1.88,1.39,.69,.36,1.41,.73,1.89,1.29,.5,.58,.77,1.34,1.03,2.08,.2,.56,.39,1.1,.66,1.53l4.6-5.08c.14-.15,.37-.16,.52-.03,.15,.14,.16,.37,.03,.52l-4.9,5.41c-.07,.08-.17,.12-.27,.12Z"/>
        <g>
          <path d="M29.59,67.57l-5.78,2.85-2.69-5.04-5.89,1.01-1.37-5.86c-.79,1.12-1.5,2.28-2.13,3.51-1.46,2.87-2.79,5.82-4.43,8.6-.04,.06-.06,.14-.07,.21,0,.07-.03,.19,.01,.22,.11,.08,.26,.21,.36,.19,1.88-.5,3.76-1.02,5.64-1.54,1.52-.42,3.03-.87,4.55-1.27,.8-.21,1.48,.05,2.01,.68,.24,.29,.46,.59,.68,.89,1.31,1.74,2.61,3.48,3.92,5.21,.86,1.14,1.72,2.27,2.58,3.41,.22,.3,.44,.66,.86,.62,.54-.05,.67-.54,.83-.95,.22-.56,.4-1.13,.59-1.7,.91-2.71,1.81-5.41,2.71-8.12l-2.39-2.91Zm-9.27,.85c-.25,.25-.65,.25-.9,0-.25-.25-.25-.65,0-.9,.25-.25,.65-.25,.9,0,.25,.25,.25,.65,0,.9Zm8.23,2.46c-.25-.25-.25-.65,0-.9,.25-.25,.65-.25,.9,0,.25,.25,.25,.65,0,.9-.25,.25-.65,.25-.9,0Z"/>
          <path d="M36.28,37.6c.11-.67,.19-1.34,.05-2.01-.04-.21-.16-.41-.27-.61-.18-.32-.78-.36-.96-.06-.22,.38-.42,.79-.6,1.19-.24,.55-.16,1.19-.53,1.7-.04,.05-.14,.11-.18,.09-.13-.05-.31-.1-.35-.2-.28-.74-.17-1.48,.07-2.2,.16-.5,.38-.98,.6-1.45,.36-.76,.55-1.55,.5-2.69,0,0-.02-.3-.09-.59-.03-.12-.16-.27-.27-.3-.12-.03-.31,.03-.39,.12-.94,1.08-1.66,2.31-2.17,3.65-.72,1.9-1.64,3.7-2.62,5.48-1.05,1.9-2.14,3.79-3.51,5.49-1.37,1.69-2.73,3.39-4.04,5.12-2.38,3.13-4.71,6.3-7.08,9.43l1.33,5.81,5.76-.98,2.6,4.88,5.67-2.79,2.47,3c.14-.43,.29-.87,.43-1.3,1.25-3.78,2.18-7.64,2.99-11.54,.44-2.16,.4-4.32,.13-6.49-.44-3.44-.55-6.87,.07-10.3,.15-.81,.28-1.63,.41-2.44Zm-18.39,25.36c-.25,.25-.65,.25-.9,0-.25-.25-.25-.65,0-.9,.25-.25,.65-.25,.9,0s.25,.65,0,.9Zm7.97,3.44c-.25,.25-.65,.25-.9,0-.25-.25-.25-.65,0-.9,.25-.25,.65-.25,.9,0s.25,.65,0,.9Z"/>
        </g>
        <g>
          <path class="cls-1" d="M65.7,32.58l4.88-3.45-2.09-3.67c1.26-.03,2.51-.1,3.76-.29,.46-.07,.88,.31,.94,.77,.13,.98,.05,1.94-.11,2.91-.3,1.78-.83,3.5-1.4,5.2-.63,1.87-1.54,3.58-2.7,5.16-.58,.78-1.17,1.56-1.76,2.33-.69,.89-1.32,1.82-1.73,2.88-.13,.35-.31,.68-.51,1-.62,1.01-1.96,1.31-2.95,.66-.07-.04-.13-.1-.2-.14l-.57-5.82,6.1-2.08-1.66-5.46Zm-2,8.51c-.35,0-.63,.28-.63,.63s.28,.63,.63,.63,.63-.28,.63-.63-.28-.63-.63-.63Zm4.71-6.93c.35,0,.63-.28,.63-.63s-.28-.63-.63-.63-.63,.28-.63,.63,.28,.63,.63,.63Z"/>
          <path class="cls-1" d="M50.07,25.53c.22-.04,.44-.1,.66-.11,1.13-.03,2.24-.21,3.36-.3,2.33-.2,4.68-.28,7,.06,1.1,.16,2.22,.25,3.33,.27,1.01,.01,2.03,.03,3.04,.03,.12,0,.23,.06,.29,.17l1.71,3.01c.09,.15,.04,.34-.1,.44l-4.32,3.06c-.12,.08-.17,.23-.13,.37l1.44,4.75c.05,.17-.04,.36-.21,.42l-5.42,1.84c-.15,.05-.24,.2-.23,.35l.44,4.43c.03,.32-.35,.5-.58,.27-.37-.37-.73-.73-1.09-1.1-1.49-1.52-2.67-3.32-3.5-5.28-1.13-2.69-2.33-5.35-4-7.85-.19-.29,.12-.64,.43-.48,.22,.11,.43,.21,.65,.3,.9,.38,2.31,1.13,3.15,1.63,1.15,.68,.35,.15,1.94,1.09,.71,.42,1.38-.67,.34-1.38-.57-.37-.89-.52-1.49-.81-2.64-1.26-4.24-2.63-6.96-3.74-.29-.12-.47-.36-.49-.69-.02-.33,.31-.67,.72-.75Zm16.21,3.05c.35,0,.63-.28,.63-.63s-.28-.63-.63-.63-.63,.28-.63,.63,.28,.63,.63,.63Zm-3.2,8.07c.35,0,.63-.28,.63-.63s-.28-.63-.63-.63-.63,.28-.63,.63,.28,.63,.63,.63Z"/>
        </g>
        <g>
          <path class="cls-1" d="M66.17,15.28l-5.12-2.54,.83-5.92-4.62-1.12c.87-.77,1.81-1.45,2.74-2.15,.18-.13,.39-.21,.6-.31,.39-.19,.97-.1,1.26,.21,.2,.22,.4,.45,.57,.69,.88,1.23,1.54,2.57,2.19,3.92,.79,1.62,1.7,3.17,2.83,4.58,.42,.52,.78,1.1,1.15,1.67,.57,.89,.96,1.85,1.14,2.91,.21,1.19,.38,2.37,.37,3.58-.03,.75-.06,1.5-.11,2.24-.03,.43-.47,.8-.92,.85-.71,.09-1.41,.02-2.12-.07l-3.48-2.69,2.67-5.86Zm-2.13-4.33c-.26-.24-.66-.23-.9,.03-.24,.26-.23,.66,.03,.9,.26,.24,.66,.23,.9-.03,.24-.26,.23-.66-.03-.9Zm2.76,9.95c.24-.26,.23-.66-.03-.9-.26-.24-.66-.23-.9,.03-.24,.26-.23,.66,.03,.9,.26,.24,.66,.23,.9-.03Z"/>
          <path class="cls-1" d="M47.88,17.52c.21-1.19,.53-2.35,1.2-3.37,.95-1.44,1.94-2.88,3.32-3.94,1.49-1.15,2.8-2.49,4.13-3.81,.03-.03,.07-.06,.1-.1l4.45,1.08-.81,5.78,4.95,2.46-2.62,5.75,2.98,2.3c-.47-.05-.93-.09-1.4-.1-2.47-.06-4.95-.07-7.42-.1-2.18-.03-4.35,0-6.47,.63-.2,.06-.45,.04-.66,0-.13-.02-.3-.14-.35-.25-.39-.89-.13-1.9,.61-2.4,.37-.25,.77-.46,1.15-.71,.69-.47,1.27-1.06,1.65-1.81,.13-.26,.17-.56,.24-.85,.05-.2-.25-.4-.47-.31-.2,.09-.4,.19-.59,.31-2.51,1.55-3.15,1.41-3.29,1.27-.5-.5-.82-1.08-.69-1.82Zm13.44-.04c.26,.24,.66,.23,.9-.03,.24-.26,.23-.66-.03-.9s-.66-.23-.9,.03c-.24,.26-.23,.66,.03,.9Zm-3.68-7.87c.26,.24,.66,.23,.9-.03,.24-.26,.23-.66-.03-.9-.26-.24-.66-.23-.9,.03-.24,.26-.23,.66,.03,.9Z"/>
        </g>
        <path class="cls-2" d="M66.83,50.83h0c.1,0,.2-.04,.27-.12,.51-.57,.79-1.35,1.06-2.1,.25-.71,.49-1.38,.89-1.85,.4-.46,1.02-.78,1.68-1.12,.83-.43,1.68-.87,2.17-1.64,.47-.75,.51-1.69,.54-2.61,.03-.76,.05-1.48,.31-2.05,.25-.55,.75-1.04,1.29-1.56,.67-.64,1.36-1.31,1.61-2.18,.24-.84,.02-1.75-.2-2.64-.18-.74-.35-1.44-.26-2.07,.09-.6,.45-1.2,.83-1.85,.47-.79,.96-1.62,.98-2.52,.02-.91-.44-1.75-.89-2.56-.36-.65-.7-1.27-.77-1.87-.07-.63,.12-1.33,.33-2.06,.25-.87,.5-1.78,.29-2.63-.22-.88-.89-1.57-1.53-2.23-.52-.53-1.01-1.04-1.24-1.6-.24-.58-.24-1.3-.24-2.06,0-.91,0-1.86-.45-2.62-.46-.79-1.3-1.26-2.11-1.72-.65-.37-1.26-.71-1.64-1.18-.39-.49-.6-1.16-.82-1.88-.27-.88-.56-1.79-1.22-2.39-.89-.81-2.97-1.36-4.55-1.67h-.07c-.05-.03-.11-.03-.17-.02-.1,.02-.18,.08-.23,.17l-2.49,4.13c-.1,.17-.05,.4,.12,.5,.17,.1,.4,.05,.5-.12l2.36-3.91c2,.41,3.47,.94,4.04,1.46,.51,.47,.75,1.24,1.01,2.07,.23,.75,.47,1.53,.95,2.12,.47,.58,1.17,.98,1.85,1.36,.76,.43,1.48,.83,1.84,1.45,.35,.59,.35,1.4,.35,2.26,0,.8,0,1.62,.29,2.33,.28,.69,.84,1.27,1.39,1.84,.61,.62,1.18,1.21,1.35,1.9,.17,.66-.05,1.43-.28,2.25-.22,.77-.44,1.57-.35,2.34,.08,.74,.48,1.45,.85,2.14,.42,.76,.81,1.48,.8,2.19-.01,.71-.43,1.42-.88,2.16-.4,.67-.82,1.37-.93,2.11-.11,.77,.08,1.58,.27,2.35,.2,.83,.39,1.61,.2,2.26-.2,.69-.79,1.25-1.42,1.86-.56,.54-1.15,1.1-1.45,1.79-.31,.7-.34,1.53-.37,2.32-.03,.86-.06,1.66-.43,2.24-.38,.6-1.11,.98-1.88,1.39-.69,.36-1.41,.73-1.89,1.29-.5,.58-.77,1.34-1.03,2.08-.2,.56-.39,1.1-.66,1.53l-4.6-5.08c-.14-.15-.37-.16-.52-.03-.15,.14-.16,.37-.03,.52l4.9,5.41c.07,.08,.17,.12,.27,.12Z"/>
        <g>
          <path d="M54.53,67.57l5.78,2.85,2.69-5.04,5.89,1.01,1.37-5.86c.79,1.12,1.5,2.28,2.13,3.51,1.46,2.87,2.79,5.82,4.43,8.6,.04,.06,.06,.14,.07,.21,0,.07,.03,.19-.01,.22-.11,.08-.26,.21-.36,.19-1.88-.5-3.76-1.02-5.64-1.54-1.52-.42-3.03-.87-4.55-1.27-.8-.21-1.48,.05-2.01,.68-.24,.29-.46,.59-.68,.89-1.31,1.74-2.61,3.48-3.92,5.21-.86,1.14-1.72,2.27-2.58,3.41-.22,.3-.44,.66-.86,.62-.54-.05-.67-.54-.83-.95-.22-.56-.4-1.13-.59-1.7-.91-2.71-1.81-5.41-2.71-8.12l2.39-2.91Zm9.27,.85c.25,.25,.65,.25,.9,0,.25-.25,.25-.65,0-.9-.25-.25-.65-.25-.9,0-.25,.25-.25,.65,0,.9Zm-8.23,2.46c.25-.25,.25-.65,0-.9-.25-.25-.65-.25-.9,0-.25,.25-.25,.65,0,.9,.25,.25,.65,.25,.9,0Z"/>
          <path d="M47.84,37.6c-.11-.67-.19-1.34-.05-2.01,.04-.21,.16-.41,.27-.61,.18-.32,.78-.36,.96-.06,.22,.38,.42,.79,.6,1.19,.24,.55,.16,1.19,.53,1.7,.04,.05,.14,.11,.18,.09,.13-.05,.31-.1,.35-.2,.28-.74,.17-1.48-.07-2.2-.16-.5-.38-.98-.6-1.45-.36-.76-.55-1.55-.5-2.69,0,0,.02-.3,.09-.59,.03-.12,.16-.27,.27-.3,.12-.03,.31,.03,.39,.12,.94,1.08,1.66,2.31,2.17,3.65,.72,1.9,1.64,3.7,2.62,5.48,1.05,1.9,2.14,3.79,3.51,5.49,1.37,1.69,2.73,3.39,4.04,5.12,2.38,3.13,4.71,6.3,7.08,9.43l-1.33,5.81-5.76-.98-2.6,4.88-5.67-2.79-2.47,3c-.14-.43-.29-.87-.43-1.3-1.25-3.78-2.18-7.64-2.99-11.54-.44-2.16-.4-4.32-.13-6.49,.44-3.44,.55-6.87-.07-10.3-.15-.81-.28-1.63-.41-2.44Zm18.39,25.36c.25,.25,.65,.25,.9,0,.25-.25,.25-.65,0-.9-.25-.25-.65-.25-.9,0s-.25,.65,0,.9Zm-7.97,3.44c.25,.25,.65,.25,.9,0,.25-.25,.25-.65,0-.9-.25-.25-.65-.25-.9,0s-.25,.65,0,.9Z"/>
        </g>
      </g>
    </g>
  </g>
</svg>