<svg version="1.1" id="Layer_1" xmlns="http://www.w3.org/2000/svg" xmlns:xlink="http://www.w3.org/1999/xlink" x="0px" y="0px"
	 width="100%" viewBox="0 0 180 180" enable-background="new 0 0 180 180" xml:space="preserve">
<path fill="#FEFEFE" opacity="1.000000" stroke="none" 
	d="
M55.000000,181.000000 
	C37.028885,181.000000 19.057766,181.000000 1.061859,181.000000 
	C1.061859,120.999977 1.061859,60.999977 1.061859,1.000000 
	C13.770040,1.000000 26.416361,1.000000 39.388535,1.313888 
	C37.749702,2.699398 35.785019,3.771019 33.527351,5.041617 
	C31.968119,8.264998 30.701866,11.289403 29.435612,14.313807 
	C29.901817,14.498162 30.368023,14.682517 30.834227,14.866871 
	C32.079552,11.760982 33.324875,8.655093 34.910210,5.410599 
	C44.062698,1.550010 44.208054,1.583274 47.058762,8.320341 
	C42.447506,15.960632 38.339279,23.520044 33.476227,30.557882 
	C29.782139,35.903988 28.567371,41.727402 28.431459,47.832611 
	C28.261082,55.486050 30.839510,56.789272 37.715538,53.173794 
	C38.344791,52.842930 39.244179,53.025826 40.194893,53.313995 
	C41.916199,53.717312 43.460743,53.776779 45.470039,53.896545 
	C55.790848,53.956841 65.646904,53.956841 76.852448,53.956841 
	C75.400078,51.923389 74.321289,49.824398 72.703796,48.295254 
	C70.616692,46.322170 67.619926,45.107380 68.232841,41.101528 
	C71.391396,42.517685 74.279869,43.812744 77.101616,45.077892 
	C80.336662,39.338371 77.660980,32.171238 70.129837,25.148441 
	C68.223984,23.360495 66.421875,21.896736 64.749710,20.297127 
	C58.090286,13.926641 57.708717,13.853679 49.073013,18.099129 
	C49.544075,21.327642 49.850956,24.625519 50.550564,27.837866 
	C51.084808,30.290922 50.528557,31.365082 48.039200,30.657604 
	C48.135769,25.669222 48.135769,21.063494 48.135769,15.977535 
	C50.506542,15.296215 53.547665,14.422249 57.917549,13.166419 
	C54.360790,11.028846 51.772842,9.473518 49.094704,7.578225 
	C48.003010,5.158839 47.001503,3.079420 46.000000,1.000000 
	C76.687561,1.000000 107.375122,1.000000 138.429443,1.329863 
	C135.159515,5.705623 131.522797,9.751520 127.911285,13.769389 
	C130.405823,14.324007 133.111862,14.925645 136.110596,15.767662 
	C136.441101,18.044399 136.824585,20.145941 136.455078,22.105492 
	C135.077515,29.410936 135.069489,29.556581 142.346100,32.888302 
	C144.093582,33.831127 145.519501,34.611565 147.132050,35.494144 
	C145.404404,39.164974 143.621078,42.522545 142.287613,46.050148 
	C141.887024,47.109852 142.739471,48.643211 143.090912,50.231743 
	C143.108444,50.683384 143.052963,50.862858 142.655457,51.193939 
	C139.328705,50.219757 139.018204,48.505306 140.569565,45.739441 
	C142.231064,42.777184 143.356018,39.513981 144.905304,35.943920 
	C142.460098,34.907463 140.227036,33.960934 137.777664,32.736370 
	C136.122559,31.790791 134.683762,31.123245 133.225769,30.446787 
	C133.772278,27.918777 134.303116,25.463312 134.901154,22.582039 
	C134.968338,20.548206 134.968338,18.940182 134.968338,17.899792 
	C128.924362,14.285083 123.980690,14.475354 120.060799,20.233459 
	C119.440117,21.145205 118.110100,21.553095 117.405914,22.432472 
	C113.732224,27.020145 109.754303,31.442656 106.733177,36.437340 
	C105.453728,38.552582 106.254921,41.926350 106.041412,46.067104 
	C110.522491,43.721046 113.266785,42.284279 116.304565,41.029091 
	C116.384758,42.270073 116.511909,43.634289 115.890526,44.328346 
	C114.384842,46.010132 112.325134,47.207741 110.882217,48.930130 
	C109.744751,50.287899 109.193863,52.137077 108.382446,53.767998 
	C110.011261,54.169296 111.642876,54.900089 113.268173,54.886288 
	C115.185120,54.870007 117.096603,54.209389 119.474731,53.890396 
	C127.960808,53.952663 135.982605,53.952663 143.960052,53.952663 
	C143.505402,52.630222 143.221527,51.804569 143.307571,50.946556 
	C145.275375,52.046627 146.786301,53.336376 148.489563,54.278263 
	C151.885254,56.156044 155.891159,55.056519 155.886749,52.147621 
	C155.880127,47.767735 155.216324,43.388844 154.878311,38.649254 
	C152.629135,34.521992 150.333557,30.755005 147.932770,26.653954 
	C145.163284,21.550980 142.499008,16.782070 139.750214,11.661303 
	C135.931473,7.863523 138.574081,5.208349 140.388580,2.759317 
	C147.224014,2.839880 151.118378,6.041355 152.750732,12.446136 
	C153.217331,14.276893 155.131866,15.869776 156.661911,17.265383 
	C158.606689,19.039284 160.835861,20.501366 162.954773,22.536289 
	C162.513016,28.983080 163.555939,34.402317 169.086487,38.475830 
	C169.383194,40.920864 170.132462,43.204460 169.538742,45.057846 
	C167.965500,49.969059 168.853790,54.148949 172.089661,58.405682 
	C172.427780,58.188229 172.654541,57.608482 172.830780,56.672775 
	C170.284302,52.693165 170.253418,48.966053 171.286377,44.703800 
	C171.841217,42.414425 170.381927,39.636921 169.728851,36.755440 
	C166.340225,33.408627 164.271591,29.958111 164.918961,25.195543 
	C165.097214,23.884113 164.217743,22.428907 163.747040,20.713089 
	C162.283875,19.260054 160.858673,18.177370 159.520096,16.996471 
	C157.704300,15.394578 154.822189,13.970341 154.388016,12.025507 
	C153.052094,6.041543 149.461380,2.789186 144.000000,1.000000 
	C156.313248,1.000000 168.626495,1.000000 180.969879,1.000000 
	C180.969879,60.882191 180.969879,120.764397 180.969879,181.000000 
	C163.980743,181.000000 146.959030,181.000000 129.586914,180.683990 
	C133.833694,174.250244 138.430847,168.132492 143.014252,162.008652 
	C143.000473,162.002563 143.015152,162.027573 143.368317,161.865265 
	C145.735535,161.502304 147.749603,161.301666 150.001862,161.365952 
	C151.829926,162.009537 153.419785,162.388199 155.389664,162.876053 
	C160.878082,164.434219 165.986465,165.883209 172.395737,167.701202 
	C169.405609,162.273773 167.128082,158.139816 164.869049,153.702545 
	C164.219910,152.214218 163.552307,151.029205 162.801315,149.465683 
	C160.838226,145.755936 158.958527,142.424683 156.652390,138.337692 
	C155.536194,142.576172 154.692291,145.780655 153.511444,148.957474 
	C152.949692,148.912994 152.724915,148.896194 152.601639,148.470306 
	C153.214844,144.803177 153.999237,141.554565 154.111816,138.282822 
	C154.160828,136.858658 152.830521,135.387024 152.084595,133.603394 
	C151.351456,132.183533 150.660339,131.097244 149.881287,129.689697 
	C148.230438,127.499229 146.667542,125.630020 145.058044,123.433578 
	C143.665970,121.406647 142.320511,119.706947 140.900177,117.676918 
	C138.660873,114.629982 136.496460,111.913376 134.190186,108.928375 
	C132.309784,106.777275 130.571243,104.894569 128.823883,102.670044 
	C126.894836,99.513168 124.974640,96.698105 123.006851,93.538651 
	C121.614120,90.798195 120.268974,88.402122 118.904816,85.646538 
	C115.719307,80.432312 115.135712,73.958267 110.330902,70.130684 
	C109.823357,70.331909 109.315804,70.533134 108.808250,70.734360 
	C109.962608,75.897705 111.116959,81.061058 112.271317,86.224403 
	C111.896355,86.328918 111.521393,86.433434 111.146431,86.537949 
	C109.944290,84.272461 108.742142,82.006973 107.027565,78.775780 
	C103.581322,84.819748 106.291313,89.393951 107.050163,94.465416 
	C107.064400,98.953972 107.117416,102.980881 107.106110,107.449860 
	C106.751282,112.598015 106.460762,117.304092 106.106308,122.434280 
	C106.745262,126.908104 107.448151,130.957825 108.098831,135.401276 
	C109.014198,139.228546 109.981781,142.662109 110.954178,146.484238 
	C111.686531,149.250565 112.414062,151.628296 113.107162,154.330200 
	C113.433136,155.433807 113.793526,156.213257 114.098900,157.283951 
	C114.709747,157.388763 115.375610,157.202362 116.347000,156.843964 
	C118.581917,153.051910 121.222275,151.923950 125.147522,154.679001 
	C125.430832,155.577728 125.436775,156.124969 125.442719,156.672226 
	C120.210663,154.392014 118.021805,158.542648 115.123528,161.444809 
	C116.096855,163.712204 117.031860,165.890305 117.963150,168.434784 
	C118.632126,170.536774 119.304817,172.272400 119.995834,174.375488 
	C120.674622,176.498322 121.335075,178.253693 121.975891,180.256897 
	C121.956261,180.504730 122.000000,181.000000 122.000000,181.000000 
	C102.645775,181.000000 83.291542,181.000000 63.482067,180.612640 
	C65.006523,173.151138 66.986229,166.076996 69.272804,158.813156 
	C72.359489,147.750610 75.139290,136.877731 78.030197,125.551620 
	C78.038010,121.068153 77.934723,117.037926 77.887512,112.591415 
	C77.587074,107.786285 77.230553,103.397438 77.003372,98.619370 
	C77.914207,92.257248 78.695709,86.284348 79.477211,80.311447 
	C78.723808,80.086327 77.970406,79.861206 77.217003,79.636086 
	C76.429497,81.099831 75.774139,82.659683 74.805405,83.991615 
	C74.214905,84.803497 73.141739,85.264336 72.224121,85.501221 
	C73.271782,80.272766 74.380684,75.425934 75.489586,70.579094 
	C74.729736,70.328743 73.969894,70.078392 73.210045,69.828041 
	C69.552376,77.223656 65.894714,84.619270 62.054115,92.317459 
	C59.980324,95.529503 58.246685,98.556763 56.170799,101.327621 
	C48.120296,112.073296 40.039299,122.798439 31.790724,133.391907 
	C29.535234,136.288589 29.229874,138.946426 31.002953,142.409943 
	C31.467545,145.132462 31.947340,147.446274 32.432434,149.785614 
	C36.614876,149.072845 40.311539,148.442841 44.357742,147.876007 
	C46.100784,149.694672 47.494289,151.450150 48.931992,153.542603 
	C49.796864,155.445938 50.617542,157.012299 51.446976,158.595352 
	C55.013294,156.895370 58.361557,155.251099 61.752617,153.700439 
	C63.891769,152.722260 63.920471,152.785019 64.652176,155.006836 
	C62.479961,155.619370 60.694813,156.244171 58.910770,156.872101 
	C55.938278,157.918289 52.966499,158.966522 49.944870,159.661957 
	C48.911201,157.409836 47.764999,155.574036 46.979206,153.595123 
	C45.647659,150.241806 43.370979,149.200974 39.609154,150.204758 
	C36.401329,150.127457 33.593533,150.070938 30.748856,149.634171 
	C29.888655,145.983322 29.065332,142.712738 28.242012,139.442139 
	C27.837212,139.351593 27.432411,139.261063 27.027611,139.170517 
	C23.402193,146.449768 19.776775,153.729034 15.949513,161.298645 
	C14.829284,163.202637 13.910898,164.816254 12.217953,167.790787 
	C20.835802,165.233734 27.936180,163.126938 35.443596,161.019470 
	C39.788940,159.843674 41.810852,162.544235 44.057426,165.343597 
	C46.096352,168.117813 48.021507,170.568939 50.059280,173.339905 
	C51.781261,176.106476 53.390629,178.553238 55.000000,181.000000 
M40.971706,108.699814 
	C40.631035,109.100639 40.290367,109.501472 39.352589,110.243233 
	C38.295807,111.206314 37.239021,112.169395 36.099037,113.208298 
	C30.991539,102.859734 30.260714,103.527435 25.810350,102.644196 
	C28.828154,106.493660 32.523331,111.207169 36.430840,116.191521 
	C37.976204,114.427971 39.480667,112.711105 41.448872,110.673363 
	C41.705097,110.179794 41.961323,109.686226 42.698071,108.911148 
	C42.999283,108.460464 43.300495,108.009781 44.218967,107.194000 
	C45.415642,105.920074 47.223469,104.842354 47.706055,103.339172 
	C50.147942,95.733025 47.938915,91.593338 40.533474,89.040031 
	C38.673553,88.398758 36.832554,87.702606 35.028450,86.248924 
	C36.321121,80.835953 40.533699,75.196617 33.809349,70.390678 
	C33.780304,70.369911 33.926819,70.103523 34.631954,70.147270 
	C36.313427,71.156494 37.994904,72.165718 39.850040,73.943909 
	C39.483540,75.834030 39.280251,77.773933 38.721611,79.605453 
	C36.574997,86.643188 36.532524,86.630234 44.453789,88.728943 
	C53.664673,89.971542 48.675236,97.110481 49.597416,102.345879 
	C61.376865,93.868675 62.648079,79.903328 69.586761,69.116226 
	C66.259407,69.963051 63.592880,71.531937 60.778542,72.762856 
	C58.624878,73.704811 56.284374,74.219582 54.091747,74.226677 
	C59.906952,70.601524 65.728661,66.986740 71.532585,63.343609 
	C72.910782,62.478516 74.229393,61.518494 75.575409,60.602131 
	C75.447960,60.112648 75.320511,59.623169 75.193054,59.133690 
	C67.873375,57.874329 60.537991,56.784412 52.065620,57.847927 
	C47.779446,58.021172 43.487362,58.424759 39.208454,58.314907 
	C32.401939,58.140160 30.103962,63.294651 29.758429,68.484673 
	C29.247902,68.284576 28.737377,68.084473 28.054026,67.156311 
	C29.171633,64.345520 30.289240,61.534725 31.421864,58.686165 
	C20.831394,56.841770 19.989470,57.661995 22.004770,67.750832 
	C22.226608,68.861374 22.718678,69.917946 23.037601,71.778107 
	C25.934269,78.003304 28.830938,84.228500 31.955557,91.064613 
	C35.601532,96.346588 39.247505,101.628563 42.402061,107.145447 
	C42.078568,107.570656 41.755074,107.995865 40.971706,108.699814 
M152.252594,106.197624 
	C150.714478,109.037498 149.176361,111.877373 147.053406,115.797050 
	C148.461914,115.170807 149.888336,115.003433 150.302414,114.266914 
	C151.665985,111.841553 152.662933,109.210083 154.317749,106.296501 
	C156.200104,105.164604 158.082474,104.032707 160.657410,102.734207 
	C161.729446,100.409317 163.631485,98.106346 163.693558,95.754791 
	C163.808136,91.414673 165.105576,88.101883 168.477158,85.432045 
	C171.681641,82.894516 171.005447,79.381584 170.909866,75.859154 
	C170.825897,72.764893 171.463531,69.621750 172.046661,66.550369 
	C172.363815,64.879967 173.231186,63.314022 173.850388,61.700966 
	C168.246628,69.690605 168.457504,69.674515 169.105682,78.170975 
	C169.266510,80.278961 168.112900,83.032623 166.627640,84.606155 
	C163.624710,87.787552 161.804581,90.998436 161.775696,95.551933 
	C161.762146,97.686394 159.896530,99.809113 158.221786,102.109856 
	C156.438522,103.360031 154.655273,104.610207 152.252594,106.197624 
M144.214554,89.015556 
	C135.071167,92.428421 135.071167,92.428421 136.987335,99.825363 
	C137.018600,104.767540 140.730759,109.822685 145.846863,111.580299 
	C144.508698,109.786697 143.329346,108.205986 142.307632,106.836548 
	C147.375412,98.881233 152.391953,91.006348 157.905106,82.621300 
	C159.548218,76.750984 161.191345,70.880676 163.010391,64.132462 
	C163.199265,57.297890 161.690338,56.506527 153.059097,59.140442 
	C153.784332,60.763489 154.496353,62.356930 154.569931,63.994881 
	C154.356995,64.006653 154.144043,64.018417 153.328384,63.647675 
	C151.419388,60.537991 149.566620,57.330013 144.211487,58.649467 
	C140.809174,58.461266 137.406860,58.273067 133.220016,57.860283 
	C128.483490,57.951633 123.746956,58.042984 118.137985,58.013687 
	C115.074623,58.347408 112.011261,58.681129 108.947899,59.014851 
	C108.838615,59.703320 108.729332,60.391792 108.620049,61.080265 
	C111.087830,62.305664 113.555618,63.531067 116.619080,65.136696 
	C119.732368,66.792145 122.845665,68.447586 126.286148,70.672195 
	C127.620895,71.783737 128.955658,72.895271 130.115326,74.595787 
	C129.747604,75.052063 129.379883,75.508339 128.517715,75.500351 
	C124.045937,73.153824 119.574158,70.807297 115.102379,68.460777 
	C114.917519,68.834122 114.732658,69.207466 114.547798,69.580811 
	C117.015106,74.057953 119.482414,78.535095 121.996109,83.735031 
	C122.750671,85.490929 123.505226,87.246826 124.397926,89.657761 
	C127.452591,93.912277 130.507263,98.166794 133.561920,102.421303 
	C134.046997,102.146912 134.532089,101.872520 135.017166,101.598129 
	C135.017166,100.319229 135.027390,99.040222 135.015472,97.761429 
	C134.942856,89.970421 134.940765,89.968826 142.767166,87.967445 
	C143.083832,87.886475 143.422394,87.890999 144.212921,88.066902 
	C144.451736,88.299507 144.690567,88.532104 144.214554,89.015556 
M14.210227,55.302990 
	C14.776437,52.960346 15.805356,50.617142 15.802533,48.275185 
	C15.798083,44.581387 15.100571,40.888432 14.696427,37.195118 
	C13.672990,39.670670 13.332231,42.442852 13.182801,45.225315 
	C13.010393,48.435638 13.006772,51.655029 12.367596,55.308712 
	C9.851928,59.192875 10.346696,62.845852 12.489689,66.859741 
	C13.672978,69.076073 14.491120,72.250465 13.845660,74.532417 
	C12.126984,80.608658 14.136627,84.762733 19.283443,88.797615 
	C20.248095,92.791328 21.212746,96.785042 22.177399,100.778755 
	C22.808784,100.603310 23.440170,100.427872 24.071556,100.252434 
	C22.667519,95.854401 21.263481,91.456375 19.609589,86.433517 
	C16.101660,83.315704 14.112812,80.072243 15.777805,74.841789 
	C16.592733,72.281754 15.553204,68.591805 14.204666,66.013985 
	C12.359077,62.486023 11.606922,59.409225 14.210227,55.302990 
M104.968658,56.166340 
	C104.526314,53.186497 104.083977,50.206657 103.678238,47.473362 
	C99.749702,47.685608 96.375435,47.867908 92.334335,47.685314 
	C88.630936,47.685314 84.927544,47.685314 79.868690,47.685314 
	C79.868690,52.019382 79.868690,56.523575 79.684189,61.829437 
	C79.455154,64.290863 79.084396,66.748802 79.023849,69.214363 
	C78.847214,76.407349 78.981293,76.488953 86.836464,75.889809 
	C91.741974,76.135536 96.652908,76.595627 101.549057,76.471535 
	C102.726784,76.441673 104.786530,74.524689 104.848335,73.388916 
	C105.144569,67.944397 104.894073,62.470135 104.968658,56.166340 
M19.069199,34.328266 
	C20.199253,29.741982 21.329309,25.155697 22.459364,20.569414 
	C21.920107,20.463995 21.380850,20.358578 20.841591,20.253160 
	C20.020323,25.056700 19.199055,29.860237 19.069199,34.328266 
M26.079876,16.433455 
	C25.132074,17.152006 24.184271,17.870560 23.236469,18.589111 
	C23.493658,18.898001 23.750847,19.206892 24.008038,19.515783 
	C25.619545,18.572222 27.231052,17.628662 28.842560,16.685102 
	C28.695232,16.362679 28.547903,16.040255 28.400576,15.717831 
	C27.843252,15.838786 27.285931,15.959742 26.079876,16.433455 
z"/>
<path fill="#786D6C" opacity="1.000000" stroke="none" 
	d="
M68.965927,159.002838 
	C66.986229,166.076996 65.006523,173.151138 63.013409,180.612640 
	C60.629444,181.000000 58.258884,181.000000 55.444160,181.000000 
	C53.390629,178.553238 51.781261,176.106476 50.363731,173.196747 
	C55.848473,167.765564 61.141376,162.797333 66.677933,158.064957 
	C67.618996,158.548233 68.316399,158.795639 69.013802,159.018372 
	C69.013809,158.993683 68.965927,159.002838 68.965927,159.002838 
z"/>
<path fill="#AA8A87" opacity="1.000000" stroke="none" 
	d="
M143.583344,1.000000 
	C149.461380,2.789186 153.052094,6.041543 154.388016,12.025507 
	C154.822189,13.970341 157.704300,15.394578 159.520096,16.996471 
	C160.858673,18.177370 162.283875,19.260054 163.548370,20.840790 
	C163.194672,21.520294 163.033386,21.787897 162.942429,22.097887 
	C160.835861,20.501366 158.606689,19.039284 156.661911,17.265383 
	C155.131866,15.869776 153.217331,14.276893 152.750732,12.446136 
	C151.118378,6.041355 147.224014,2.839880 140.388580,2.759317 
	C138.574081,5.208349 135.931473,7.863523 139.376282,11.665256 
	C137.997192,13.189804 136.907547,14.358544 135.817886,15.527284 
	C133.111862,14.925645 130.405823,14.324007 127.911285,13.769389 
	C131.522797,9.751520 135.159515,5.705623 138.898102,1.329863 
	C140.388885,1.000000 141.777786,1.000000 143.583344,1.000000 
z"/>
<path fill="#494444" opacity="1.000000" stroke="none" 
	d="
M122.437500,181.000000 
	C122.000000,181.000000 121.956261,180.504730 122.123291,179.958099 
	C127.294365,174.340698 132.179749,169.142883 137.381897,164.284271 
	C138.764496,162.992981 141.119492,162.742889 143.028015,162.014740 
	C138.430847,168.132492 133.833694,174.250244 129.118256,180.683990 
	C126.958336,181.000000 124.916664,181.000000 122.437500,181.000000 
z"/>
<path fill="#CC8E8C" opacity="1.000000" stroke="none" 
	d="
M45.571537,1.000000 
	C47.001503,3.079420 48.003010,5.158839 48.770050,7.603223 
	C48.102806,7.983859 47.670017,7.999530 47.237232,8.015202 
	C44.208054,1.583274 44.062698,1.550010 34.730541,5.225680 
	C34.080692,5.067124 33.950516,4.954882 33.820335,4.842640 
	C35.785019,3.771019 37.749702,2.699398 39.857193,1.313888 
	C41.714359,1.000000 43.428715,1.000000 45.571537,1.000000 
z"/>
<path fill="#9C8381" opacity="1.000000" stroke="none" 
	d="
M72.285370,85.882843 
	C73.141739,85.264336 74.214905,84.803497 74.805405,83.991615 
	C75.774139,82.659683 76.429497,81.099831 77.217003,79.636086 
	C77.970406,79.861206 78.723808,80.086327 79.477211,80.311447 
	C78.695709,86.284348 77.914207,92.257248 76.663757,98.658043 
	C70.243881,104.522064 64.216515,109.877487 58.365898,115.419502 
	C53.565968,119.966255 49.047554,124.809410 44.270947,129.381821 
	C40.420319,133.067856 36.495754,136.632614 35.072971,142.185791 
	C33.951637,142.134750 32.484898,142.067978 31.018160,142.001205 
	C29.229874,138.946426 29.535234,136.288589 31.790724,133.391907 
	C40.039299,122.798439 48.120296,112.073296 56.170799,101.327621 
	C58.246685,98.556763 59.980324,95.529503 62.402168,92.307892 
	C66.050560,89.958130 69.167969,87.920486 72.285370,85.882843 
z"/>
<path fill="#947E7C" opacity="1.000000" stroke="none" 
	d="
M31.002953,142.409943 
	C32.484898,142.067978 33.951637,142.134750 35.072971,142.185791 
	C36.495754,136.632614 40.420319,133.067856 44.270947,129.381821 
	C49.047554,124.809410 53.565968,119.966255 58.365898,115.419502 
	C64.216515,109.877487 70.243881,104.522064 76.534409,99.047264 
	C77.230553,103.397438 77.587074,107.786285 77.534004,112.594482 
	C76.110275,113.485451 74.865616,113.723907 74.116997,114.464081 
	C64.584373,123.889191 55.068073,133.332886 45.717251,142.937012 
	C44.627674,144.056107 44.553253,146.163589 44.008202,147.812851 
	C40.311539,148.442841 36.614876,149.072845 32.432434,149.785614 
	C31.947340,147.446274 31.467545,145.132462 31.002953,142.409943 
z"/>
<path fill="#B58A87" opacity="1.000000" stroke="none" 
	d="
M70.293304,25.410196 
	C77.660980,32.171238 80.336662,39.338371 77.101616,45.077892 
	C74.279869,43.812744 71.391396,42.517685 68.232841,41.101528 
	C67.619926,45.107380 70.616692,46.322170 72.703796,48.295254 
	C74.321289,49.824398 75.400078,51.923389 76.852448,53.956841 
	C65.646904,53.956841 55.790848,53.956841 45.468338,53.520012 
	C45.027340,52.080418 45.052803,51.077648 45.420425,50.013283 
	C53.939484,41.771187 62.116394,33.590691 70.293304,25.410196 
z"/>
<path fill="#BD8A88" opacity="1.000000" stroke="none" 
	d="
M70.129837,25.148441 
	C62.116394,33.590691 53.939484,41.771187 45.391945,49.986885 
	C45.021313,50.022087 44.963783,49.969917 44.996628,49.588547 
	C43.423698,44.977356 41.817928,40.747536 40.200359,36.486637 
	C42.836666,34.635918 45.418777,32.823242 47.984032,31.013191 
	C47.967175,31.015818 47.942635,31.040258 47.942635,31.040258 
	C50.528557,31.365082 51.084808,30.290922 50.550564,27.837866 
	C49.850956,24.625519 49.544075,21.327642 49.073013,18.099129 
	C57.708717,13.853679 58.090286,13.926641 64.749710,20.297127 
	C66.421875,21.896736 68.223984,23.360495 70.129837,25.148441 
z"/>
<path fill="#C28A88" opacity="1.000000" stroke="none" 
	d="
M47.058762,8.320342 
	C47.670017,7.999530 48.102806,7.983859 48.860245,7.943190 
	C51.772842,9.473518 54.360790,11.028846 57.917549,13.166419 
	C53.547665,14.422249 50.506542,15.296215 48.135769,15.977535 
	C48.135769,21.063494 48.135769,25.669222 48.039200,30.657604 
	C47.942635,31.040258 47.967175,31.015818 47.612984,30.909401 
	C37.131752,34.307869 37.091190,34.325855 41.392448,44.025185 
	C42.495258,46.512024 43.617500,48.824116 40.594749,51.117981 
	C40.191704,51.865585 40.089317,52.451664 39.992168,53.019638 
	C39.997406,53.001530 40.018127,52.970146 40.018127,52.970146 
	C39.244179,53.025826 38.344791,52.842930 37.715538,53.173794 
	C30.839510,56.789272 28.261082,55.486050 28.431459,47.832611 
	C28.567371,41.727402 29.782139,35.903988 33.476227,30.557882 
	C38.339279,23.520044 42.447506,15.960632 47.058762,8.320342 
z"/>
<path fill="#AF8A87" opacity="1.000000" stroke="none" 
	d="
M43.932251,88.225380 
	C36.532524,86.630234 36.574997,86.643188 38.721611,79.605453 
	C39.280251,77.773933 39.483540,75.834030 40.094139,73.400696 
	C43.116234,70.172653 46.075157,67.646118 48.610214,64.748726 
	C50.373985,62.732861 51.555641,60.207687 52.997345,57.910038 
	C60.537991,56.784412 67.873375,57.874329 75.193054,59.133690 
	C75.320511,59.623169 75.447960,60.112648 75.575409,60.602131 
	C74.229393,61.518494 72.910782,62.478516 71.532585,63.343609 
	C65.728661,66.986740 59.906952,70.601524 54.020355,74.927368 
	C52.102436,77.676804 50.154812,79.644943 48.438576,81.797569 
	C46.810436,83.839691 45.424625,86.075020 43.932251,88.225380 
z"/>
<path fill="#8C7A78" opacity="1.000000" stroke="none" 
	d="
M44.357742,147.876007 
	C44.553253,146.163589 44.627674,144.056107 45.717251,142.937012 
	C55.068073,133.332886 64.584373,123.889191 74.116997,114.464081 
	C74.865616,113.723907 76.110275,113.485451 77.477921,113.010757 
	C77.934723,117.037926 78.038010,121.068153 77.690697,125.588318 
	C76.431648,126.615074 75.527031,127.049553 74.829834,127.704758 
	C68.758400,133.410416 62.633652,139.065598 56.758488,144.968414 
	C55.642834,146.089340 55.559612,148.237839 55.456928,148.545090 
	C52.813881,150.420227 50.850838,151.812943 48.887794,153.205643 
	C47.494289,151.450150 46.100784,149.694672 44.357742,147.876007 
z"/>
<path fill="#857675" opacity="1.000000" stroke="none" 
	d="
M48.931988,153.542603 
	C50.850838,151.812943 52.813881,150.420227 55.456928,148.545090 
	C55.559612,148.237839 55.642834,146.089340 56.758488,144.968414 
	C62.633652,139.065598 68.758400,133.410416 74.829834,127.704758 
	C75.527031,127.049553 76.431648,126.615074 77.579597,126.041557 
	C75.139290,136.877731 72.359489,147.750610 69.272804,158.813156 
	C68.965927,159.002838 69.013809,158.993683 69.014236,158.657196 
	C67.660866,157.211761 66.307060,156.102844 64.979645,154.985168 
	C65.006042,154.976395 65.039734,155.020493 65.039734,155.020493 
	C63.920471,152.785019 63.891769,152.722260 61.752617,153.700439 
	C58.361557,155.251099 55.013294,156.895370 51.446976,158.595352 
	C50.617542,157.012299 49.796864,155.445938 48.931988,153.542603 
z"/>
<path fill="#A38684" opacity="1.000000" stroke="none" 
	d="
M93.001167,48.050209 
	C96.375435,47.867908 99.749702,47.685608 103.678238,47.473362 
	C104.083977,50.206657 104.526314,53.186497 104.549591,56.589493 
	C103.359390,57.265648 102.372757,57.297398 101.850601,57.806004 
	C96.846443,62.680256 91.874687,67.590614 87.024216,72.616623 
	C86.329315,73.336678 86.328911,74.726974 86.007088,75.807083 
	C78.981293,76.488953 78.847214,76.407349 79.023849,69.214363 
	C79.084396,66.748802 79.455154,64.290863 80.132851,61.391251 
	C84.721397,56.652111 88.861282,52.351162 93.001167,48.050209 
z"/>
<path fill="#A58684" opacity="1.000000" stroke="none" 
	d="
M116.011070,40.847511 
	C113.266785,42.284279 110.522491,43.721046 106.041412,46.067104 
	C106.254921,41.926350 105.453728,38.552582 106.733177,36.437340 
	C109.754303,31.442656 113.732224,27.020145 117.405914,22.432472 
	C118.110100,21.553095 119.440117,21.145205 120.060799,20.233459 
	C123.980690,14.475354 128.924362,14.285083 134.968338,17.899792 
	C134.968338,18.940182 134.968338,20.548206 134.547852,22.584980 
	C128.088608,28.958323 122.049843,34.902916 116.011070,40.847511 
z"/>
<path fill="#6D6463" opacity="1.000000" stroke="none" 
	d="
M134.332062,109.196762 
	C136.496460,111.913376 138.660873,114.629982 140.557266,117.710175 
	C138.886032,119.189331 137.374908,120.194084 136.097107,121.438416 
	C127.686470,129.628693 119.326111,137.870590 110.949356,146.095657 
	C109.981781,142.662109 109.014198,139.228546 108.432587,135.357605 
	C117.323051,126.345711 125.827553,117.771233 134.332062,109.196762 
z"/>
<path fill="#655E5D" opacity="1.000000" stroke="none" 
	d="
M110.954178,146.484238 
	C119.326111,137.870590 127.686470,129.628693 136.097107,121.438416 
	C137.374908,120.194084 138.886032,119.189331 140.632156,118.040512 
	C142.320511,119.706947 143.665970,121.406647 144.916138,123.753845 
	C135.694946,133.619217 126.606903,142.875336 117.390999,152.002335 
	C116.341972,153.041260 114.575432,153.355682 113.141586,154.006042 
	C112.414062,151.628296 111.686531,149.250565 110.954178,146.484238 
z"/>
<path fill="#9C8381" opacity="1.000000" stroke="none" 
	d="
M116.304565,41.029087 
	C122.049843,34.902916 128.088608,28.958323 134.480667,23.010788 
	C134.303116,25.463312 133.772278,27.918777 133.225769,30.446787 
	C134.683762,31.123245 136.122559,31.790791 137.629639,33.038033 
	C136.010452,35.384094 134.294266,37.124077 132.640961,38.921864 
	C128.083389,43.877678 123.552124,48.857689 119.010452,53.828125 
	C117.096603,54.209389 115.185120,54.870007 113.268173,54.886288 
	C111.642876,54.900089 110.011261,54.169296 108.382446,53.767998 
	C109.193863,52.137077 109.744751,50.287899 110.882217,48.930130 
	C112.325134,47.207741 114.384842,46.010132 115.890526,44.328346 
	C116.511909,43.634289 116.384758,42.270073 116.304565,41.029087 
z"/>
<path fill="#756A69" opacity="1.000000" stroke="none" 
	d="
M134.190186,108.928368 
	C125.827553,117.771233 117.323051,126.345711 108.484795,134.963867 
	C107.448151,130.957825 106.745262,126.908104 106.460114,122.425804 
	C109.044830,120.369064 111.333870,118.882812 113.354935,117.093826 
	C118.577316,112.471146 123.681389,107.714813 128.832718,103.011856 
	C130.571243,104.894569 132.309784,106.777275 134.190186,108.928368 
z"/>
<path fill="#A98886" opacity="1.000000" stroke="none" 
	d="
M44.193020,88.477158 
	C45.424625,86.075020 46.810436,83.839691 48.438576,81.797569 
	C50.154812,79.644943 52.102436,77.676804 53.987972,75.276215 
	C56.284374,74.219582 58.624878,73.704811 60.778542,72.762856 
	C63.592880,71.531937 66.259407,69.963051 69.586761,69.116226 
	C62.648079,79.903328 61.376865,93.868675 49.597416,102.345879 
	C48.675236,97.110481 53.664673,89.971542 44.193020,88.477158 
z"/>
<path fill="#837573" opacity="1.000000" stroke="none" 
	d="
M129.012161,75.964607 
	C129.379883,75.508339 129.747604,75.052063 130.533966,74.252304 
	C136.768753,69.960533 142.707977,66.127228 144.992538,58.879787 
	C149.566620,57.330013 151.419388,60.537991 153.697693,64.224152 
	C153.229767,66.159286 152.657349,67.830902 151.499481,68.810623 
	C149.183517,70.770264 146.546906,72.350975 143.858643,73.832733 
	C142.362045,74.305855 140.833481,74.805641 139.776001,75.804276 
	C136.056610,79.316742 132.585449,83.094032 128.830750,86.566055 
	C127.604530,87.699944 125.799889,88.208290 124.259789,89.002716 
	C123.505226,87.246826 122.750671,85.490929 122.320694,83.337906 
	C124.767578,80.615387 126.889870,78.290001 129.012161,75.964607 
z"/>
<path fill="#947E7C" opacity="1.000000" stroke="none" 
	d="
M119.474731,53.890396 
	C123.552124,48.857689 128.083389,43.877678 132.640961,38.921864 
	C134.294266,37.124077 136.010452,35.384094 137.845963,33.316071 
	C140.227036,33.960934 142.460098,34.907463 144.905304,35.943920 
	C143.356018,39.513981 142.231064,42.777184 140.569565,45.739441 
	C139.018204,48.505306 139.328705,50.219757 142.635803,51.182922 
	C142.958160,51.020302 142.937668,50.978912 142.937668,50.978912 
	C143.221527,51.804569 143.505402,52.630222 143.960052,53.952663 
	C135.982605,53.952663 127.960808,53.952663 119.474731,53.890396 
z"/>
<path fill="#595352" opacity="1.000000" stroke="none" 
	d="
M149.969238,130.010941 
	C150.660339,131.097244 151.351456,132.183533 151.766937,133.741577 
	C148.391571,136.920486 145.101715,139.447067 142.279343,142.417770 
	C141.033371,143.729218 140.735916,145.941818 139.677643,147.874420 
	C138.748779,148.761124 138.048370,149.459457 137.567444,150.285583 
	C133.382599,157.474045 133.394302,157.480850 125.626602,155.870651 
	C126.190392,156.680618 126.610809,157.284622 126.891953,158.199829 
	C123.824074,161.696823 120.895470,164.882614 117.966866,168.068405 
	C117.031860,165.890305 116.096855,163.712204 115.123528,161.444809 
	C118.021805,158.542648 120.210663,154.392014 125.442719,156.672226 
	C125.436775,156.124969 125.430832,155.577728 125.220474,154.305817 
	C126.678658,152.179077 128.509033,150.932083 129.974136,149.347397 
	C135.619385,143.241379 141.104767,136.987167 146.779221,130.909058 
	C147.423737,130.218689 148.886108,130.291824 149.969238,130.010941 
z"/>
<path fill="#7D706F" opacity="1.000000" stroke="none" 
	d="
M128.823883,102.670044 
	C123.681389,107.714813 118.577316,112.471146 113.354935,117.093826 
	C111.333870,118.882812 109.044830,120.369064 106.524063,122.001701 
	C106.460762,117.304092 106.751282,112.598015 107.459824,107.442123 
	C109.362968,106.050537 111.017982,105.295937 112.300964,104.131447 
	C115.966431,100.804520 119.480705,97.311028 123.054443,93.883041 
	C124.974640,96.698105 126.894836,99.513168 128.823883,102.670044 
z"/>
<path fill="#7F7371" opacity="1.000000" stroke="none" 
	d="
M124.328857,89.330238 
	C125.799889,88.208290 127.604530,87.699944 128.830750,86.566055 
	C132.585449,83.094032 136.056610,79.316742 139.776001,75.804276 
	C140.833481,74.805641 142.362045,74.305855 143.957809,74.190636 
	C144.967957,77.098885 145.469238,79.498535 146.474442,81.664299 
	C147.997620,84.946144 146.992630,86.818535 143.750748,87.855682 
	C143.422394,87.890999 143.083832,87.886475 142.767166,87.967445 
	C134.940765,89.968826 134.942856,89.970421 135.015472,97.761429 
	C135.027390,99.040222 135.017166,100.319229 135.017166,101.598129 
	C134.532089,101.872520 134.046997,102.146912 133.561920,102.421303 
	C130.507263,98.166794 127.452591,93.912277 124.328857,89.330238 
z"/>
<path fill="#5E5857" opacity="1.000000" stroke="none" 
	d="
M149.881287,129.689697 
	C148.886108,130.291824 147.423737,130.218689 146.779221,130.909058 
	C141.104767,136.987167 135.619385,143.241379 129.974136,149.347397 
	C128.509033,150.932083 126.678658,152.179077 124.943108,153.954346 
	C121.222275,151.923950 118.581917,153.051910 116.032425,156.838989 
	C114.992851,157.001587 114.573380,156.997162 114.153915,156.992737 
	C113.793526,156.213257 113.433136,155.433807 113.107162,154.330185 
	C114.575432,153.355682 116.341972,153.041260 117.390999,152.002335 
	C126.606903,142.875336 135.694946,133.619217 144.962769,124.081070 
	C146.667542,125.630020 148.230438,127.499229 149.881287,129.689697 
z"/>
<path fill="#9C8381" opacity="1.000000" stroke="none" 
	d="
M86.421776,75.848450 
	C86.328911,74.726974 86.329315,73.336678 87.024216,72.616623 
	C91.874687,67.590614 96.846443,62.680256 101.850601,57.806004 
	C102.372757,57.297398 103.359390,57.265648 104.484161,57.009544 
	C104.894073,62.470135 105.144569,67.944397 104.848335,73.388916 
	C104.786530,74.524689 102.726784,76.441673 101.549057,76.471535 
	C96.652908,76.595627 91.741974,76.135536 86.421776,75.848450 
z"/>
<path fill="#B78C8A" opacity="1.000000" stroke="none" 
	d="
M52.531483,57.878983 
	C51.555641,60.207687 50.373985,62.732861 48.610214,64.748726 
	C46.075157,67.646118 43.116234,70.172653 40.007309,73.016220 
	C37.994904,72.165718 36.313427,71.156494 34.324745,70.064857 
	C34.017536,69.982445 34.041805,70.014801 33.813492,69.660957 
	C32.538101,69.203026 31.491020,69.098938 30.429771,68.978424 
	C30.415602,68.962006 30.430317,68.969246 30.430317,68.969246 
	C30.103962,63.294651 32.401939,58.140160 39.208454,58.314907 
	C43.487362,58.424759 47.779446,58.021172 52.531483,57.878983 
z"/>
<path fill="#927E7C" opacity="1.000000" stroke="none" 
	d="
M30.785736,150.014435 
	C33.593533,150.070938 36.401329,150.127457 39.608082,150.559387 
	C40.066227,152.184036 40.125420,153.433289 40.181995,154.627365 
	C35.372612,156.106216 34.604000,157.089706 35.036560,161.020142 
	C27.936180,163.126938 20.835802,165.233734 12.217953,167.790787 
	C13.910898,164.816254 14.829284,163.202637 16.303457,161.291397 
	C18.562082,159.839844 20.353249,158.795425 21.948744,157.508423 
	C24.953978,155.084274 27.846409,152.520294 30.785736,150.014435 
z"/>
<path fill="#B58A87" opacity="1.000000" stroke="none" 
	d="
M30.094372,68.726959 
	C30.430317,68.969246 30.415602,68.962006 30.739487,69.241562 
	C32.056183,69.685669 33.048996,69.850235 34.041805,70.014801 
	C34.041805,70.014801 34.017536,69.982445 34.004440,69.967148 
	C33.926819,70.103523 33.780304,70.369911 33.809349,70.390678 
	C40.533699,75.196617 36.321121,80.835953 34.808811,86.911224 
	C33.635319,88.533585 32.681461,89.493645 31.727608,90.453697 
	C28.830938,84.228500 25.934269,78.003304 23.395527,71.352249 
	C25.244587,69.912384 26.735720,68.898376 28.226852,67.884369 
	C28.737377,68.084473 29.247902,68.284576 30.094372,68.726959 
z"/>
<path fill="#AA8A87" opacity="1.000000" stroke="none" 
	d="
M31.841581,90.759155 
	C32.681461,89.493645 33.635319,88.533585 34.786018,87.302605 
	C36.832554,87.702606 38.673553,88.398758 40.533474,89.040031 
	C47.938915,91.593338 50.147942,95.733025 47.706055,103.339172 
	C47.223469,104.842354 45.415642,105.920074 43.742104,107.204773 
	C43.265236,107.215553 42.893478,106.910538 42.893478,106.910538 
	C39.247505,101.628563 35.601532,96.346588 31.841581,90.759155 
z"/>
<path fill="#4D4847" opacity="1.000000" stroke="none" 
	d="
M143.014252,162.008667 
	C141.119492,162.742889 138.764496,162.992981 137.381897,164.284271 
	C132.179749,169.142883 127.294365,174.340698 122.142929,179.710266 
	C121.335075,178.253693 120.674622,176.498322 120.299698,174.229477 
	C124.743187,169.403915 128.901154,165.091812 133.360458,160.677933 
	C134.727570,159.032364 135.793320,157.488602 137.241547,155.955933 
	C141.285095,155.783295 142.955734,153.743240 143.388275,150.136566 
	C145.513702,150.450485 147.258942,150.821793 148.957260,151.535309 
	C147.920456,153.136246 146.753937,154.296280 145.982391,155.677032 
	C144.845612,157.711365 143.990326,159.902954 143.015152,162.027573 
	C143.015152,162.027573 143.000473,162.002563 143.014252,162.008667 
z"/>
<path fill="#837573" opacity="1.000000" stroke="none" 
	d="
M123.006851,93.538651 
	C119.480705,97.311028 115.966431,100.804520 112.300964,104.131447 
	C111.017982,105.295937 109.362968,106.050537 107.524139,107.000061 
	C107.117416,102.980881 107.064400,98.953972 107.409096,94.459732 
	C109.501587,92.864708 111.232986,91.787689 112.881859,90.596443 
	C114.931503,89.115662 116.912941,87.540466 118.923836,86.006050 
	C120.268974,88.402122 121.614120,90.798195 123.006851,93.538651 
z"/>
<path fill="#7F7371" opacity="1.000000" stroke="none" 
	d="
M66.434273,157.829086 
	C61.141376,162.797333 55.848473,167.765564 50.251118,172.876938 
	C48.021507,170.568939 46.096352,168.117813 44.359055,165.202103 
	C46.362751,163.162979 48.178585,161.588440 49.994423,160.013901 
	C52.966499,158.966522 55.938278,157.918289 58.910770,156.872101 
	C60.694813,156.244171 62.479961,155.619370 64.652176,155.006836 
	C65.039734,155.020493 65.006042,154.976395 65.047607,155.301743 
	C65.537544,156.361084 65.985909,157.095093 66.434273,157.829086 
z"/>
<path fill="#786D6C" opacity="1.000000" stroke="none" 
	d="
M162.834457,65.010361 
	C161.191345,70.880676 159.548218,76.750984 157.285263,82.861298 
	C154.287521,84.406250 151.909622,85.711197 149.542419,86.598434 
	C148.755508,83.123535 147.957916,80.066353 147.556870,77.006073 
	C153.423782,77.334244 152.815247,72.816551 154.042297,69.385132 
	C155.170303,68.443962 156.106552,67.727722 157.398102,67.004066 
	C159.447113,66.334557 161.140778,65.672455 162.834457,65.010361 
z"/>
<path fill="#756A69" opacity="1.000000" stroke="none" 
	d="
M149.531723,87.016159 
	C151.909622,85.711197 154.287521,84.406250 157.036957,83.116379 
	C152.391953,91.006348 147.375412,98.881233 142.307632,106.836548 
	C143.329346,108.205986 144.508698,109.786697 145.846863,111.580299 
	C140.730759,109.822685 137.018600,104.767540 137.418747,99.398743 
	C138.915146,97.634377 139.980118,96.296631 141.495178,94.393532 
	C145.942490,93.334122 147.184479,92.336525 149.082611,87.658386 
	C149.311981,87.288506 149.421844,87.152328 149.531723,87.016159 
z"/>
<path fill="#8C7A78" opacity="1.000000" stroke="none" 
	d="
M118.904816,85.646538 
	C116.912941,87.540466 114.931503,89.115662 112.881859,90.596443 
	C111.232986,91.787689 109.501587,92.864708 107.447876,93.998093 
	C106.291313,89.393951 103.581322,84.819748 107.027565,78.775780 
	C108.742142,82.006973 109.944290,84.272461 111.146431,86.537949 
	C111.521393,86.433434 111.896355,86.328918 112.271317,86.224403 
	C111.116959,81.061058 109.962608,75.897705 108.808250,70.734360 
	C109.315804,70.533134 109.823357,70.331909 110.330902,70.130684 
	C115.135712,73.958267 115.719307,80.432312 118.904816,85.646538 
z"/>
<path fill="#8A7978" opacity="1.000000" stroke="none" 
	d="
M144.602020,58.764626 
	C142.707977,66.127228 136.768753,69.960533 130.621506,73.957809 
	C128.955658,72.895271 127.620895,71.783737 126.164093,70.035675 
	C127.364754,67.762337 128.784286,66.193054 129.985199,64.471275 
	C131.422531,62.410515 132.673096,60.219479 134.004547,58.084869 
	C137.406860,58.273067 140.809174,58.461266 144.602020,58.764626 
z"/>
<path fill="#9E8583" opacity="1.000000" stroke="none" 
	d="
M136.110596,15.767663 
	C136.907547,14.358544 137.997192,13.189804 139.460785,12.017113 
	C142.499008,16.782070 145.163284,21.550980 147.588486,26.689127 
	C145.574448,28.947548 143.799484,30.836731 142.024536,32.725918 
	C135.069489,29.556581 135.077515,29.410936 136.455078,22.105492 
	C136.824585,20.145941 136.441101,18.044399 136.110596,15.767663 
z"/>
<path fill="#927E7C" opacity="1.000000" stroke="none" 
	d="
M133.612274,57.972576 
	C132.673096,60.219479 131.422531,62.410515 129.985199,64.471275 
	C128.784286,66.193054 127.364754,67.762337 126.000496,69.751099 
	C122.845665,68.447586 119.732368,66.792145 116.321716,64.602325 
	C117.019714,62.090088 118.015068,60.112209 119.010422,58.134331 
	C123.746956,58.042984 128.483490,57.951633 133.612274,57.972576 
z"/>
<path fill="#927E7C" opacity="1.000000" stroke="none" 
	d="
M142.346100,32.888302 
	C143.799484,30.836731 145.574448,28.947548 147.693680,27.023190 
	C150.333557,30.755005 152.629135,34.521992 154.543243,38.689407 
	C150.447128,42.713085 146.732498,46.336334 143.017883,49.959579 
	C142.739471,48.643211 141.887024,47.109852 142.287613,46.050148 
	C143.621078,42.522545 145.404404,39.164974 147.132050,35.494144 
	C145.519501,34.611565 144.093582,33.831127 142.346100,32.888302 
z"/>
<path fill="#494444" opacity="1.000000" stroke="none" 
	d="
M143.368317,161.865265 
	C143.990326,159.902954 144.845612,157.711365 145.982391,155.677032 
	C146.753937,154.296280 147.920456,153.136246 149.291397,151.471558 
	C151.333878,150.912964 154.026703,152.830536 153.848404,148.985138 
	C154.692291,145.780655 155.536194,142.576172 156.652390,138.337692 
	C158.958527,142.424683 160.838226,145.755936 162.382965,149.504654 
	C157.953232,153.648438 153.858444,157.374741 149.763657,161.101044 
	C147.749603,161.301666 145.735535,161.502304 143.368317,161.865265 
z"/>
<path fill="#524D4D" opacity="1.000000" stroke="none" 
	d="
M140.007858,147.745300 
	C140.735916,145.941818 141.033371,143.729218 142.279343,142.417770 
	C145.101715,139.447067 148.391571,136.920486 151.808990,134.075134 
	C152.830521,135.387024 154.160828,136.858658 154.111816,138.282822 
	C153.999237,141.554565 153.214844,144.803177 152.357117,148.699341 
	C148.010025,148.806763 144.008942,148.276031 140.007858,147.745300 
z"/>
<path fill="#8A7978" opacity="1.000000" stroke="none" 
	d="
M49.944870,159.661957 
	C48.178585,161.588440 46.362751,163.162979 44.245285,164.879028 
	C41.810852,162.544235 39.788940,159.843674 35.443596,161.019470 
	C34.604000,157.089706 35.372612,156.106216 40.181995,154.627365 
	C40.125420,153.433289 40.066227,152.184036 40.008110,150.580170 
	C43.370979,149.200974 45.647659,150.241806 46.979206,153.595123 
	C47.764999,155.574036 48.911201,157.409836 49.944870,159.661957 
z"/>
<path fill="#8A7978" opacity="1.000000" stroke="none" 
	d="
M143.090912,50.231743 
	C146.732498,46.336334 150.447128,42.713085 154.496826,39.049683 
	C155.216324,43.388844 155.880127,47.767735 155.886749,52.147621 
	C155.891159,55.056519 151.885254,56.156044 148.489563,54.278263 
	C146.786301,53.336376 145.275375,52.046627 143.307571,50.946556 
	C142.937668,50.978912 142.958160,51.020302 142.977814,51.031319 
	C143.052963,50.862858 143.108444,50.683384 143.090912,50.231743 
z"/>
<path fill="#3C3836" opacity="1.000000" stroke="none" 
	d="
M164.850571,154.005844 
	C167.128082,158.139816 169.405609,162.273773 172.395737,167.701202 
	C165.986465,165.883209 160.878082,164.434219 155.434860,162.547424 
	C158.350204,159.408340 161.600388,156.707092 164.850571,154.005844 
z"/>
<path fill="#524D4D" opacity="1.000000" stroke="none" 
	d="
M133.059113,160.779724 
	C128.901154,165.091812 124.743187,169.403915 120.281364,173.862030 
	C119.304817,172.272400 118.632126,170.536774 117.963150,168.434784 
	C120.895470,164.882614 123.824074,161.696823 127.237350,158.255005 
	C129.501053,158.925888 131.280090,159.852814 133.059113,160.779724 
z"/>
<path fill="#AA8A87" opacity="1.000000" stroke="none" 
	d="
M92.667755,47.867760 
	C88.861282,52.351162 84.721397,56.652111 80.225098,60.990414 
	C79.868690,56.523575 79.868690,52.019382 79.868690,47.685314 
	C84.927544,47.685314 88.630936,47.685314 92.667755,47.867760 
z"/>
<path fill="#988180" opacity="1.000000" stroke="none" 
	d="
M30.748856,149.634186 
	C27.846409,152.520294 24.953978,155.084274 21.948744,157.508423 
	C20.353249,158.795425 18.562082,159.839844 16.505302,161.001038 
	C19.776775,153.729034 23.402193,146.449768 27.027611,139.170517 
	C27.432411,139.261063 27.837212,139.351593 28.242012,139.442139 
	C29.065332,142.712738 29.888655,145.983322 30.748856,149.634186 
z"/>
<path fill="#A58684" opacity="1.000000" stroke="none" 
	d="
M72.224129,85.501221 
	C69.167969,87.920486 66.050560,89.958130 62.585098,92.005325 
	C65.894714,84.619270 69.552376,77.223656 73.210045,69.828041 
	C73.969894,70.078392 74.729736,70.328743 75.489586,70.579094 
	C74.380684,75.425934 73.271782,80.272766 72.224129,85.501221 
z"/>
<path fill="#8A7978" opacity="1.000000" stroke="none" 
	d="
M128.764938,75.732483 
	C126.889870,78.290001 124.767578,80.615387 122.297501,82.976501 
	C119.482414,78.535095 117.015106,74.057953 114.547798,69.580811 
	C114.732658,69.207466 114.917519,68.834122 115.102379,68.460777 
	C119.574158,70.807297 124.045937,73.153824 128.764938,75.732483 
z"/>
<path fill="#BD8A88" opacity="1.000000" stroke="none" 
	d="
M28.140438,67.520340 
	C26.735720,68.898376 25.244587,69.912384 23.419436,70.962967 
	C22.718678,69.917946 22.226608,68.861374 22.004770,67.750832 
	C19.989470,57.661995 20.831394,56.841770 31.421864,58.686165 
	C30.289240,61.534725 29.171633,64.345520 28.140438,67.520340 
z"/>
<path fill="#7D706F" opacity="1.000000" stroke="none" 
	d="
M158.870270,101.937149 
	C159.896530,99.809113 161.762146,97.686394 161.775696,95.551933 
	C161.804581,90.998436 163.624710,87.787552 166.627640,84.606155 
	C168.112900,83.032623 169.266510,80.278961 169.105682,78.170975 
	C168.457504,69.674515 168.246628,69.690605 173.850388,61.700966 
	C173.231186,63.314022 172.363815,64.879967 172.046661,66.550369 
	C171.463531,69.621750 170.825897,72.764893 170.909866,75.859154 
	C171.005447,79.381584 171.681641,82.894516 168.477158,85.432045 
	C165.105576,88.101883 163.808136,91.414673 163.693558,95.754791 
	C163.631485,98.106346 161.729446,100.409317 160.185349,102.600029 
	C159.432281,102.289619 159.151276,102.113380 158.870270,101.937149 
z"/>
<path fill="#423D3C" opacity="1.000000" stroke="none" 
	d="
M164.869049,153.702545 
	C161.600388,156.707092 158.350204,159.408340 155.054825,162.438232 
	C153.419785,162.388199 151.829926,162.009537 150.001862,161.365967 
	C153.858444,157.374741 157.953232,153.648438 162.466370,149.883163 
	C163.552307,151.029205 164.219910,152.214218 164.869049,153.702545 
z"/>
<path fill="#7F7371" opacity="1.000000" stroke="none" 
	d="
M162.922424,64.571411 
	C161.140778,65.672455 159.447113,66.334557 157.341400,66.699623 
	C156.355682,65.585190 155.782028,64.767784 155.208359,63.950375 
	C154.496353,62.356930 153.784332,60.763489 153.059097,59.140442 
	C161.690338,56.506527 163.199265,57.297890 162.922424,64.571411 
z"/>
<path fill="#C49795" opacity="1.000000" stroke="none" 
	d="
M18.940218,88.129852 
	C14.136627,84.762733 12.126984,80.608658 13.845660,74.532417 
	C14.491120,72.250465 13.672978,69.076073 12.489689,66.859741 
	C10.346696,62.845852 9.851928,59.192875 12.742995,55.309669 
	C13.278775,55.599503 13.509199,55.812649 13.809668,55.950054 
	C11.606922,59.409225 12.359077,62.486023 14.204666,66.013985 
	C15.553204,68.591805 16.592733,72.281754 15.777805,74.841789 
	C14.112812,80.072243 16.101660,83.315704 19.525915,86.870255 
	C19.196365,87.533348 19.029024,87.807632 18.940218,88.129852 
z"/>
<path fill="#F2F1F0" opacity="1.000000" stroke="none" 
	d="
M133.360458,160.677933 
	C131.280090,159.852814 129.501053,158.925888 127.376633,157.943787 
	C126.610809,157.284622 126.190392,156.680618 125.626602,155.870651 
	C133.394302,157.480850 133.382599,157.474045 137.567444,150.285583 
	C138.048370,149.459457 138.748779,148.761124 139.677643,147.874420 
	C144.008942,148.276031 148.010025,148.806763 152.255630,149.108459 
	C152.724915,148.896194 152.949692,148.912994 153.511444,148.957474 
	C154.026703,152.830536 151.333878,150.912964 149.338303,151.129364 
	C147.258942,150.821793 145.513702,150.450485 143.002823,150.051834 
	C137.662735,149.470978 138.308167,153.659241 136.859085,155.944824 
	C135.793320,157.488602 134.727570,159.032364 133.360458,160.677933 
z"/>
<path fill="#786D6C" opacity="1.000000" stroke="none" 
	d="
M148.963135,87.892082 
	C147.184479,92.336525 145.942490,93.334122 141.495178,94.393532 
	C139.980118,96.296631 138.915146,97.634377 137.461548,98.986328 
	C135.071167,92.428421 135.071167,92.428421 144.916046,88.848289 
	C146.732742,88.418045 147.847946,88.155060 148.963135,87.892082 
z"/>
<path fill="#F2F1F0" opacity="1.000000" stroke="none" 
	d="
M149.082611,87.658386 
	C147.847946,88.155060 146.732742,88.418045 145.273468,88.722870 
	C144.690567,88.532104 144.451736,88.299507 143.981842,87.961288 
	C146.992630,86.818535 147.997620,84.946144 146.474442,81.664299 
	C145.469238,79.498535 144.967957,77.098885 144.141876,74.446060 
	C146.546906,72.350975 149.183517,70.770264 151.499481,68.810623 
	C152.657349,67.830902 153.229767,66.159286 153.999054,64.415405 
	C154.144043,64.018417 154.356995,64.006653 154.889145,63.972626 
	C155.782028,64.767784 156.355682,65.585190 156.986069,66.707039 
	C156.106552,67.727722 155.170303,68.443962 153.705231,69.505920 
	C151.345139,72.383804 145.966446,71.934273 147.160324,77.009163 
	C147.957916,80.066353 148.755508,83.123535 149.542419,86.598434 
	C149.421844,87.152328 149.311981,87.288506 149.082611,87.658386 
z"/>
<path fill="#B49492" opacity="1.000000" stroke="none" 
	d="
M40.985123,110.994232 
	C39.480667,112.711105 37.976204,114.427971 36.430840,116.191521 
	C32.523331,111.207169 28.828154,106.493660 25.810350,102.644196 
	C30.260714,103.527435 30.991539,102.859734 36.099037,113.208298 
	C37.239021,112.169395 38.295807,111.206314 39.763927,110.306664 
	C40.445217,110.578140 40.715172,110.786186 40.985123,110.994232 
z"/>
<path fill="#9E8583" opacity="1.000000" stroke="none" 
	d="
M118.574203,58.074013 
	C118.015068,60.112209 117.019714,62.090088 116.023880,64.412216 
	C113.555618,63.531067 111.087830,62.305664 108.620049,61.080265 
	C108.729332,60.391792 108.838615,59.703320 108.947899,59.014851 
	C112.011261,58.681129 115.074623,58.347408 118.574203,58.074013 
z"/>
<path fill="#8C7A78" opacity="1.000000" stroke="none" 
	d="
M171.978287,58.043392 
	C168.853790,54.148949 167.965500,49.969059 169.538742,45.057846 
	C170.132462,43.204460 169.383194,40.920864 169.183701,38.259407 
	C169.287079,37.400341 169.523804,37.198425 169.831467,37.079674 
	C170.381927,39.636921 171.841217,42.414425 171.286377,44.703800 
	C170.253418,48.966053 170.284302,52.693165 172.628433,56.789406 
	C172.243286,57.479591 172.077179,57.740055 171.978287,58.043392 
z"/>
<path fill="#9E8583" opacity="1.000000" stroke="none" 
	d="
M169.728851,36.755440 
	C169.523804,37.198425 169.287079,37.400341 169.024078,37.901852 
	C163.555939,34.402317 162.513016,28.983080 162.954773,22.536289 
	C163.033386,21.787897 163.194672,21.520294 163.624939,21.167376 
	C164.217743,22.428907 165.097214,23.884113 164.918961,25.195543 
	C164.271591,29.958111 166.340225,33.408627 169.728851,36.755440 
z"/>
<path fill="#CC8E8C" opacity="1.000000" stroke="none" 
	d="
M14.009947,55.626522 
	C13.509199,55.812649 13.278775,55.599503 13.024126,55.090553 
	C13.006772,51.655029 13.010393,48.435638 13.182801,45.225315 
	C13.332231,42.442852 13.672990,39.670670 14.696427,37.195118 
	C15.100571,40.888432 15.798083,44.581387 15.802533,48.275185 
	C15.805356,50.617142 14.776437,52.960346 14.009947,55.626522 
z"/>
<path fill="#B49492" opacity="1.000000" stroke="none" 
	d="
M19.111832,88.463730 
	C19.029024,87.807632 19.196365,87.533348 19.650845,87.182663 
	C21.263481,91.456375 22.667519,95.854401 24.071556,100.252434 
	C23.440170,100.427872 22.808784,100.603310 22.177399,100.778755 
	C21.212746,96.785042 20.248095,92.791328 19.111832,88.463730 
z"/>
<path fill="#CC8E8C" opacity="1.000000" stroke="none" 
	d="
M18.723492,34.496021 
	C19.199055,29.860237 20.020323,25.056700 20.841591,20.253160 
	C21.380850,20.358578 21.920107,20.463995 22.459364,20.569414 
	C21.329309,25.155697 20.199253,29.741982 18.723492,34.496021 
z"/>
<path fill="#756A69" opacity="1.000000" stroke="none" 
	d="
M153.800690,106.657776 
	C152.662933,109.210083 151.665985,111.841553 150.302414,114.266914 
	C149.888336,115.003433 148.461914,115.170807 147.053406,115.797050 
	C149.176361,111.877373 150.714478,109.037498 152.780045,106.245148 
	C153.471878,106.414360 153.636276,106.536064 153.800690,106.657776 
z"/>
<path fill="#CC8E8C" opacity="1.000000" stroke="none" 
	d="
M34.390533,5.364285 
	C33.324875,8.655093 32.079552,11.760982 30.834227,14.866871 
	C30.368023,14.682517 29.901817,14.498162 29.435612,14.313807 
	C30.701866,11.289403 31.968119,8.264998 33.527351,5.041617 
	C33.950516,4.954882 34.080692,5.067124 34.390533,5.364285 
z"/>
<path fill="#756A69" opacity="1.000000" stroke="none" 
	d="
M158.546021,102.023499 
	C159.151276,102.113380 159.432281,102.289619 159.839050,102.683334 
	C158.082474,104.032707 156.200104,105.164604 154.059204,106.477135 
	C153.636276,106.536064 153.471878,106.414360 153.089752,106.076523 
	C154.655273,104.610207 156.438522,103.360031 158.546021,102.023499 
z"/>
<path fill="#BD8A88" opacity="1.000000" stroke="none" 
	d="
M45.049789,50.048485 
	C45.052803,51.077648 45.027340,52.080418 45.003578,53.459717 
	C43.460743,53.776779 41.916199,53.717312 40.194893,53.313995 
	C40.018127,52.970146 39.997406,53.001530 40.294495,52.927094 
	C41.204777,52.268536 41.817974,51.684414 42.714043,51.076160 
	C43.652531,50.691326 44.308155,50.330620 44.963783,49.969917 
	C44.963783,49.969917 45.021313,50.022087 45.049789,50.048485 
z"/>
<path fill="#CC8E8C" opacity="1.000000" stroke="none" 
	d="
M26.404242,16.257076 
	C27.285931,15.959742 27.843252,15.838786 28.400576,15.717831 
	C28.547903,16.040255 28.695232,16.362679 28.842560,16.685102 
	C27.231052,17.628662 25.619545,18.572222 24.008038,19.515783 
	C23.750847,19.206892 23.493658,18.898001 23.236469,18.589111 
	C24.184271,17.870560 25.132074,17.152006 26.404242,16.257076 
z"/>
<path fill="#AA8A87" opacity="1.000000" stroke="none" 
	d="
M41.216995,110.833801 
	C40.715172,110.786186 40.445217,110.578140 40.062481,110.136200 
	C40.290367,109.501472 40.631035,109.100639 41.390244,108.764488 
	C41.945042,108.950325 42.081295,109.071495 42.217552,109.192657 
	C41.961323,109.686226 41.705097,110.179794 41.216995,110.833801 
z"/>
<path fill="#655E5D" opacity="1.000000" stroke="none" 
	d="
M114.098900,157.283966 
	C114.573380,156.997162 114.992851,157.001587 115.726898,157.010986 
	C115.375610,157.202362 114.709747,157.388763 114.098900,157.283966 
z"/>
<path fill="#7D706F" opacity="1.000000" stroke="none" 
	d="
M172.089661,58.405682 
	C172.077179,57.740055 172.243286,57.479591 172.678955,57.145367 
	C172.654541,57.608482 172.427780,58.188229 172.089661,58.405682 
z"/>
<path fill="#AA8A87" opacity="1.000000" stroke="none" 
	d="
M43.433472,107.387329 
	C43.300495,108.009781 42.999283,108.460464 42.457809,109.051903 
	C42.081295,109.071495 41.945042,108.950325 41.620182,108.625122 
	C41.755074,107.995865 42.078568,107.570656 42.647770,107.027992 
	C42.893478,106.910538 43.265236,107.215553 43.433472,107.387329 
z"/>
<path fill="#FEFEFE" opacity="1.000000" stroke="none" 
	d="
M66.677933,158.064957 
	C65.985909,157.095093 65.537544,156.361084 65.021217,155.310516 
	C66.307060,156.102844 67.660866,157.211761 69.014236,158.681870 
	C68.316399,158.795639 67.618996,158.548233 66.677933,158.064957 
z"/>
<path fill="#F2F1F0" opacity="1.000000" stroke="none" 
	d="
M44.996628,49.588547 
	C44.308155,50.330620 43.652531,50.691326 42.328880,51.041222 
	C41.405704,51.005760 41.150555,50.981110 40.895405,50.956455 
	C43.617500,48.824116 42.495258,46.512024 41.392448,44.025185 
	C37.091190,34.325855 37.131752,34.307869 47.629845,30.906775 
	C45.418777,32.823242 42.836666,34.635918 40.200359,36.486637 
	C41.817928,40.747536 43.423698,44.977356 44.996628,49.588547 
z"/>
<path fill="#FEFEFE" opacity="1.000000" stroke="none" 
	d="
M40.594749,51.117981 
	C41.150555,50.981110 41.405704,51.005760 42.046013,51.065353 
	C41.817974,51.684414 41.204777,52.268536 40.289253,52.945206 
	C40.089317,52.451664 40.191704,51.865585 40.594749,51.117981 
z"/>
<path fill="#FEFEFE" opacity="1.000000" stroke="none" 
	d="
M33.813492,69.660957 
	C33.048996,69.850235 32.056183,69.685669 30.753654,69.257980 
	C31.491020,69.098938 32.538101,69.203026 33.813492,69.660957 
z"/>
<path fill="#524D4D" opacity="1.000000" stroke="none" 
	d="
M137.241547,155.955933 
	C138.308167,153.659241 137.662735,149.470978 142.622620,150.109222 
	C142.955734,153.743240 141.285095,155.783295 137.241547,155.955933 
z"/>
<path fill="#7F7371" opacity="1.000000" stroke="none" 
	d="
M147.556870,77.006073 
	C145.966446,71.934273 151.345139,72.383804 153.513458,69.730850 
	C152.815247,72.816551 153.423782,77.334244 147.556870,77.006073 
z"/>
</svg>