<?xml version="1.0" standalone="yes"?><svg xmlns="http://www.w3.org/2000/svg" width="1200" height="630" viewBox="0 0 1200 630" fill="none" style="zoom: 1;"><rect width="1200" height="630" fill="#F5F5F5"></rect><g clip-path="url(#clip0_0_1)"><rect y="0px" height="610" x="0px" width="1200" fill="white"></rect><text fill="#35495E" fill-opacity="0.7" xml:space="preserve" style="white-space: pre" font-family="Inter" font-size="32" letter-spacing="0em"><tspan x="50" y="200.136">{{category}}</tspan></text><text fill="black" xml:space="preserve" style="white-space: pre" font-family="Inter" font-size="64" letter-spacing="0em"><tspan x="50" y="279.772">{{line1}} </tspan></text><text fill="black" xml:space="preserve" style="white-space: pre" font-family="Inter" font-size="64" letter-spacing="0em"><tspan x="50" y="356.772">{{line2}} </tspan></text><text fill="black" xml:space="preserve" style="white-space: pre" font-family="Inter" font-size="64" letter-spacing="0em"><tspan x="50" y="433.772">{{line3}}</tspan></text><text x="31px" style="white-space: pre" font-family="Inter" y="18px" xml:space="preserve" letter-spacing="0em" fill="#35495E" font-size="26" fill-opacity="0.5"><tspan x="50" y="557.518">{{siteName}}</tspan></text><text fill="#35495E" fill-opacity="0.5" xml:space="preserve" style="white-space: pre; text-anchor: end;" font-family="Inter" font-size="26" letter-spacing="0em"><tspan dx="96.5%" y="557.518">{{siteDescription}}</tspan></text><rect y="610" width="1200" height="20" fill="url(#paint16_linear_0_1)"></rect><path d="M1040.416626,523 C1034.339722,520.48114 1028.952515,517.712097 1028.790283,510.49585 C1014.590332,507.650696 1012.101807,496.405212 1017.09314,488.173981 C1018.609863,485.672699 1021.39563,483.190491 1024.107666,482.363129 C1027.178711,481.426239 1028.661865,480.502441 1029.576538,477.256409 C1030.99646,472.216827 1036.691406,469.001282 1042.482788,468.993195 C1048.635498,468.984589 1053.312866,472.206787 1055.88147,477.457642 C1056.811768,479.359558 1058.706299,481.098663 1060.584229,482.169342 C1065.851807,485.172485 1069.32312,489.38028 1069.910889,495.415833 C1070.394653,500.383881 1065.672363,506.583923 1060.819702,509.074402 C1058.897217,510.061035 1057.137939,511.950195 1056.046753,513.853882 C1053.558105,518.195679 1050.588867,521.632629 1045.166748,522.67627 C1043.611084,523 1042.222168,523 1040.416626,523 M1062.010376,504.541321 C1067.634033,500.118561 1067.22998,495.317932 1065.397339,491.01001 C1063.962891,487.638184 1061.57959,485.011169 1058.335938,485.234985 C1057.193359,489.138672 1056.241211,492.391785 1055.273804,495.696472 C1056.164551,498.935242 1057.196411,502.686768 1058.298828,506.695068 C1058.960571,506.344849 1060.20874,505.684326 1062.010376,504.541321 M1026.410767,502.587402 C1027.377563,500.173126 1028.34436,497.75885 1028.871826,496.44162 C1027.779541,492.257874 1026.877075,488.801697 1025.972656,485.337646 C1020.578857,486.305237 1017.987549,489.650452 1018.009033,496.0448 C1018.028076,501.747162 1021.067017,505.248047 1027.032227,506.209351 C1026.807251,505.182861 1026.601196,504.242432 1026.410767,502.587402 M1037.962891,518.924561 C1045.334595,521.139709 1051.265015,518.191345 1052.668213,511.884521 C1049.025269,510.87207 1045.381226,509.859375 1042.101929,508.948059 C1038.804077,509.911194 1035.513184,510.872314 1031.062988,512.171997 C1033.34375,514.559143 1035.292847,516.599121 1037.962891,518.924561 M1034.801514,480.01004 C1037.652832,480.778168 1040.527832,482.233032 1043.349243,482.135376 C1046.65332,482.020966 1049.910522,480.554688 1053.206421,479.669922 C1053.075439,479.378937 1052.6604,478.114502 1051.983154,477.010986 C1049.331787,472.690613 1045.119141,470.870819 1040.544556,472.217896 C1037.573975,473.092621 1035.016846,475.762726 1032.615723,477.9953 C1031.599731,478.93988 1031.226318,480.991821 1034.801514,480.01004 M1030.433594,505.83606 C1032.834961,508.702148 1035.530396,508.688232 1038.287354,507.070679 C1035.82019,504.469482 1033.486572,502.009094 1030.501587,498.862061 C1030.345093,501.364105 1030.228271,503.233398 1030.433594,505.83606 M1052.895996,506.592407 C1053.408325,504.226929 1053.920654,501.86145 1054.433105,499.495941 C1054.533325,499.953857 1054.633545,500.411743 1054.733887,500.869659 C1052.096069,503.282288 1049.458252,505.694946 1046.820557,508.107544 C1046.44043,508.057129 1046.060181,508.006775 1045.680054,507.956421 C1047.893677,507.675537 1050.107422,507.394714 1052.895996,506.592407 M1053.98999,486.410461 C1050.055664,482.547272 1049.737549,482.490845 1046.641846,484.732178 C1048.845215,486.924194 1051.105957,489.173218 1053.759644,491.81308 C1053.887085,490.305298 1054.021362,488.716614 1053.98999,486.410461 M1031.090088,491.855499 C1033.303223,489.109741 1035.516357,486.363953 1037.412354,484.011597 C1032.24231,482.201599 1029.554688,484.584076 1031.090088,491.855499" id="path3" stroke="none" fill="#CB8583" opacity="1.000000"></path><path d="M1004.599976,420 C1007.985107,422.892792 1009.898438,425.997314 1007.856934,430.365173 C1004.83374,436.833435 998.796509,437.292297 992.199585,438.417847 C993.061279,443.501648 983.188721,447.476471 990.171631,453.791382 C993.899902,451.787598 997.018433,449.619659 1000.470215,448.379333 C1004.915894,446.781921 1010.383667,450.01358 1010.988037,454.017334 C1011.782837,459.283813 1006.787109,463.748108 1001.297852,462.659973 C1000.171143,462.436584 998.891113,462.405457 997.968628,461.827576 C992.369385,458.319397 990.028076,461.693787 988.097168,466.506836 C995.072876,472.179108 1002.195312,470.038544 1009.335205,466.897095 C1018.535767,462.848938 1027.597168,458.306946 1038.912598,459.009125 C1041.145264,459.332458 1042.561768,459.63031 1043.978271,459.928162 C1046.827637,460.671173 1049.77771,461.153564 1052.506714,462.208191 C1059.477173,464.901947 1065.541382,463.984802 1070.852173,458.529053 C1071.682129,457.676392 1073.062744,457.359619 1074.188721,456.795074 C1074.631226,457.315613 1075.07373,457.836121 1075.516235,458.356659 C1073.421875,460.531433 1071.626099,463.158691 1069.16748,464.78183 C1064.7677,467.686462 1059.85144,468.274231 1054.582886,466.799347 C1049.070312,465.256134 1043.462891,463.790405 1037.798584,463.111511 C1028.948242,462.050781 1021.180908,466.076691 1013.233521,469.26239 C1008.263916,471.254456 1002.980835,472.464722 997.052979,474.01358 C994.870117,473.687805 993.472412,473.374268 992.074951,473.060699 C989.900391,471.900879 987.72583,470.741028 985.369751,469.484375 C981.222046,472.191772 977.523315,476.924255 971.156128,474.151245 C967.77655,472.679352 964.453674,470.977234 965.155518,466.875092 C965.821106,462.984985 968.722351,460.565277 973.02063,461.033051 C976.997192,461.46582 980.938965,462.217133 985.39624,462.905365 C986.228516,461.624603 987.471191,459.71228 988.710693,457.804626 C986.980469,456.285767 985.39502,454.893921 984.447998,454.062561 C980.065674,454.771851 976.286133,455.777161 972.479248,455.893799 C968.318726,456.021301 964.669067,452.358154 965.077759,448.838562 C965.589355,444.432068 968.6073,442.471497 972.75293,443.088531 C976.505493,443.647064 980.140869,444.992065 984.802124,446.254059 C986.893921,441.202362 988.72168,435.213898 991.782227,429.941101 C993.881348,426.324951 997.694946,423.70401 1000.871094,420.319092 C1002.06665,420 1003.133301,420 1004.599976,420 M1004.921875,452.471619 C1000.796509,451.560608 997.345459,452.303101 994.550171,456.709351 C997.593018,457.578369 1000.0271,458.619324 1002.536377,458.852875 C1003.913818,458.98111 1005.960571,458.105682 1006.682617,457.009186 C1007.202637,456.219788 1006.032715,454.317627 1004.921875,452.471619 M994.175293,432.767456 C996.598755,432.519104 999.402954,432.932739 1001.331787,431.823792 C1003.034058,430.845093 1003.759766,428.167694 1004.916748,426.240356 C1003.541016,425.743164 1001.436401,424.425598 1000.914673,424.889252 C998.523193,427.014526 996.574951,429.638275 994.175293,432.767456 M980.897827,467.234436 C977.580688,466.530823 974.224243,465.153137 970.959106,465.343323 C968.480347,465.487701 968.16449,468.121887 970.418213,469.650024 C974.198853,472.213409 977.617798,471.151245 980.897827,467.234436 M979.810059,449.603271 C977.281738,448.730927 974.798584,447.629456 972.199463,447.114777 C971.330078,446.942657 970.164062,448.269257 969.133789,448.910767 C969.860107,449.842438 970.395752,451.202637 971.348145,451.626312 C974.333984,452.954529 977.34082,453.060272 979.810059,449.603271" id="path4" stroke="none" fill="#CB8482" opacity="1.000000"></path><path d="M763,494.449982 C764.980713,487.306427 766.536987,480.446686 769.072388,473.970276 C771.216064,468.494659 774.494141,463.463135 777.314392,458.151611 C775.805115,456.766724 773.666565,455.338776 772.230042,453.392639 C766.402954,445.498535 768.31189,437.145874 778.075012,430.772827 C782.230896,428.059998 787.40564,426.867554 792.195251,425.20929 C792.91626,424.959656 794.064453,425.943756 795.015015,426.357178 C795.075378,426.844086 795.135742,427.330994 795.196167,427.817902 C793.040771,428.549988 790.885376,429.281982 788.730103,430.01416 C782.361633,432.177551 776.481873,434.990204 773.669128,441.70993 C771.792603,446.192932 775.239868,453.838135 779.774475,454.745178 C780.860596,454.962433 782.456055,453.825806 783.483398,452.929321 C787.079529,449.791412 790.907837,447.018402 795.907837,448.141541 C797.80481,448.567657 800.193481,450.208191 800.828491,451.877167 C801.443604,453.493958 800.690063,456.344604 799.498169,457.80481 C795.587036,462.596313 790.787598,463.102142 781.183044,460.286591 C772.390991,472.645081 766.404297,486.074585 767.064453,501.754547 C767.341675,508.338745 773.377441,513.206543 780.160095,511.83252 C786.377686,510.572998 792.369202,508.169678 798.430908,506.180664 C801.085999,505.309509 801.560059,503.863586 799.956421,501.278442 C796.343933,495.454956 798.243652,492.164459 802.298096,487.606323 C803.520569,486.231964 807.828796,486.12027 809.759094,487.182587 C813.206665,489.079987 814.799561,492.936249 813.314941,496.902588 C812.258057,499.726349 810.215332,502.181152 808.446167,505.072632 C813.382385,507.654785 818.4729,510.317749 823.563416,512.980713 C823.223083,513.618774 822.882751,514.256897 822.542419,514.89502 C815.855469,514.605042 810.596436,510.79303 806.074768,507.844727 C797.581299,510.441589 789.77124,513.527588 781.667847,515.133728 C771.077271,517.23291 764.976013,512.329102 763.316772,503.188721 C763,500.299988 763,497.599976 763,494.449982 M805.764648,490.093109 C804.534607,491.777618 802.635132,493.33316 802.278259,495.185852 C801.971313,496.7789 803.315735,498.767792 804.185608,500.449402 C804.377625,500.820587 805.796387,500.944855 806.395264,500.655334 C810.46228,498.689026 810.494934,492.906372 805.764648,490.093109 M792.823608,457.936462 C794.609863,456.721466 796.396179,455.50647 798.342285,454.182678 C793.518433,450.484222 788.303345,452.006836 785.039673,457.984772 C787.574463,457.984772 789.789795,457.984772 792.823608,457.936462" id="path5" stroke="none" fill="#CB8482" opacity="1.000000"></path><path d="M1178,512.75 C1174.655518,513.970032 1171.325317,515.716064 1167.963989,515.778076 C1151.971191,516.073242 1135.969482,515.843323 1119.972168,515.965576 C1116.705078,515.990479 1114.463501,515.370056 1114.279785,511.242493 C1122.352173,511.242493 1130.408691,511.242493 1139.011475,511.242493 C1139.011475,493.901733 1139.011475,476.960602 1139.354004,459.649841 C1141.578369,460.572296 1143.460083,461.86438 1145.280518,463.611359 C1145.214844,478.203613 1145.202881,492.340973 1145.214355,506.478333 C1145.216064,508.766663 1144.745117,511.512085 1149.016113,510.736938 C1149.016113,495.506287 1149.016113,480.227753 1149.3396,464.797974 C1150.116943,464.788055 1150.571045,464.929443 1151.025146,465.070801 C1151.025146,480.213837 1151.025146,495.356873 1151.025146,510.244751 C1158.982178,510.244751 1166.700439,510.244751 1174.418579,510.244751 C1174.590332,509.769897 1174.761963,509.295044 1174.933594,508.82019 C1175.727051,509.855896 1176.520508,510.891602 1177.656982,511.963684 C1178,512 1178,512.5 1178,512.75" id="path6" stroke="none" fill="#0E0A0A" opacity="1.000000"></path><path d="M1085.217773,474.27301 C1093.563721,465.885651 1101.179443,457.396393 1106.423706,446.005737 C1101.164917,446.005737 1096.384644,446.508698 1091.769531,445.851685 C1087.852539,445.294037 1082.4375,449.031799 1079.674194,441.946045 C1088.233398,441.946045 1096.299561,441.950592 1104.365723,441.941498 C1105.69458,441.940002 1107.563232,442.432495 1108.261597,441.751892 C1111.812134,438.291443 1113.715576,440.911224 1115.450806,443.040863 C1110.354736,450.58548 1105.324463,458.032745 1100.728149,464.837524 C1106.775146,468.789001 1112.85376,472.761017 1119.846802,477.330688 C1117.512207,479.247925 1116.119507,480.391693 1115.847168,480.615356 C1111.13562,475.940674 1106.546021,471.386963 1101.956421,466.833252 C1101.383423,467.284851 1100.810425,467.73645 1100.237549,468.188049 C1100.237549,485.223175 1100.237549,502.258301 1100.237549,519.472778 C1098.447144,519.956421 1096.948486,520.361267 1095.134766,520.851196 C1095.134766,504.332581 1095.134766,487.923706 1095.134766,470.467133 C1091.431641,473.633026 1088.717285,476.845184 1085.265625,478.635925 C1082.244141,480.203461 1080.361328,485.639648 1075.245239,482.496033 C1078.609497,479.740784 1081.789917,477.136108 1085.217773,474.27301" id="path7" stroke="none" fill="#080404" opacity="1.000000"></path><path d="M846.594849,434.608521 C849.421387,434.401917 851.797058,434.2052 854.175293,434.00824 C853.347778,437.637268 852.379333,440.002686 852.333984,442.385681 C852.016968,459.040802 852.873352,475.884521 847.817749,491.981262 C845.285095,500.045135 840.93042,507.55896 837.1604,515.203491 C835.005981,519.572021 831.425049,517.152954 827.913269,516.485229 C847.955566,494.170532 846.513062,466.717804 847.162354,439.003296 C841.353699,439.003296 835.771057,439.003296 830.188354,439.003296 C824.026245,439.003296 817.852295,439.217529 811.708557,438.881165 C809.696533,438.770996 807.762817,437.230377 805.793274,436.343933 C805.981934,435.768738 806.170532,435.193542 806.359192,434.618378 C819.620728,434.618378 832.882324,434.618378 846.594849,434.608521" id="path8" stroke="none" fill="#070303" opacity="1.000000"></path><path d="M895.529724,446.052429 C900.662842,447.569611 905.265381,449.524017 910.06189,450.345062 C912.87854,450.827209 916.166992,449.948486 918.960815,448.917023 C928.731812,445.309601 938.522339,444.561798 948.454468,447.914246 C951.25238,448.858643 954.262634,449.887878 953.997681,453.852966 C953.745605,457.624207 951.261597,459.019104 948.026855,460.107056 C937.071899,463.791443 926.554016,462.146118 916.346741,457.60025 C913.841553,456.484558 912.059692,456.473877 909.587891,457.646667 C900.071106,462.162079 890.077026,463.382324 879.740234,460.966736 C878.623047,460.705688 877.267456,460.583099 876.500549,459.876984 C874.532227,458.064575 871.447021,455.973694 871.427002,453.967987 C871.407959,452.067688 874.440918,448.94458 876.612915,448.442963 C882.634644,447.052277 888.907227,446.747437 895.529724,446.052429 M878.468384,451.758179 C877.27002,452.345642 876.071655,452.933136 874.669128,453.620697 C881.363586,460.480896 899.145569,459.685272 906.723145,453.996582 C900.565247,449.806152 891.109497,448.891937 878.468384,451.758179 M932.186768,449.898376 C927.561584,450.831482 922.93634,451.764587 917.159485,452.930023 C927.608398,459.680481 944.403015,459.668213 950.212341,453.483826 C944.90155,449.850159 939.107117,449.075623 932.186768,449.898376" id="path9" stroke="none" fill="#CB8482" opacity="1.000000"></path><path d="M908.961182,474.000458 C909.023621,475.556549 908.69342,477.077454 908.240051,479.165405 C916.687195,477.797913 925.462402,481.307251 933.964111,476.726959 C934.974976,477.533142 936.351562,478.63089 937.458008,479.513245 C935.719604,482.41098 934.043457,485.276337 932.299561,488.099823 C923.255371,502.742737 909.440857,511.080933 893.831726,516.928833 C890.058716,518.342407 886.074097,519.239746 882.127686,520.104736 C881.217163,520.304321 880.063477,519.394531 878.212769,518.685181 C899.361145,512.235168 916.648804,502.316345 928.801575,483.043304 C920.280762,483.043304 912.504578,482.297028 904.99469,483.386566 C901.687805,483.866333 899.077637,488.299683 895.877258,490.548248 C890.168884,494.558899 884.283081,498.321838 878.386841,502.054749 C877.593323,502.557129 876.309326,502.284729 874.252686,502.45282 C881.312317,496.572144 887.60675,491.725006 893.406311,486.344452 C896.711914,483.277649 899.350952,479.442627 902.022705,475.759521 C903.852539,473.237122 905.668396,471.967285 908.961182,474.000458" id="path10" stroke="none" fill="#0A0606" opacity="1.000000"></path><path d="M958.256104,471.278198 C952.680664,475.271179 947.355713,479.010498 942.03064,482.749756 C941.56781,482.177185 941.10498,481.604553 940.642212,481.031982 C943.218323,478.32312 945.794434,475.614258 949.060303,472.180145 C947.149048,471.970581 946.408936,471.819 945.668762,471.818512 C925.373718,471.805176 905.077942,471.892273 884.784424,471.714905 C881.74646,471.688354 880.516174,472.974365 879.159363,475.291473 C876.72522,479.448425 873.894531,483.373169 870.947815,487.820068 C869.06604,485.15332 867.939087,483.556152 867.095459,482.360596 C872.109619,476.092285 877.042847,469.925049 882.304199,463.347656 C882.661194,464.532593 883.123779,466.06781 883.613831,467.694427 C904.395752,469.462952 952.581299,468.379211 956.101807,465.879547 C957.513428,467.055298 958.981689,468.278198 960.467529,469.515656 C959.920898,469.936279 959.213745,470.480408 958.256104,471.278198 " id="path11" stroke="none" fill="#120E0E" opacity="1.000000"></path><path d="M906.239075,432.979645 C911.691467,432.981323 916.667542,432.981323 922.097534,432.981323 C922.097534,430.343994 922.097534,427.932281 922.097534,425.234924 C924.131165,425.117371 925.729858,425.024963 927.726929,424.909546 C927.852783,427.529358 927.969666,429.962952 928.116638,433.02243 C938.295959,432.825684 948.49646,433.458374 958.756226,432.067505 C958.886169,432.892761 959.016052,433.718079 959.145996,434.543335 C956.632324,435.335754 954.141785,436.710632 951.600708,436.811401 C943.960938,437.114288 936.301514,436.920532 929.991089,436.920532 C927.423157,439.349731 925.623108,441.05249 922.862732,443.663666 C922.38385,440.351868 922.161133,438.811462 921.914001,437.102478 C916.208923,437.102478 910.570862,437.102478 905.458862,437.102478 C903.766479,439.056061 902.205566,440.85791 900.644592,442.659729 C900.225159,442.444946 899.805664,442.230194 899.38623,442.015442 C899.187683,440.490997 898.989075,438.966583 898.722534,436.92038 C890.040527,436.92038 881.254333,437.030334 872.475647,436.821838 C870.842163,436.783051 869.239075,435.46402 867.621948,434.73584 C867.790283,434.193604 867.958557,433.651367 868.126831,433.109131 C878.299927,433.109131 888.473022,433.109131 898.851562,433.109131 C898.851562,430.277435 898.851562,427.991302 898.851562,425.343872 C900.581055,425.343872 902.097961,425.343872 903.113708,425.343872 C904.034363,427.997009 904.89856,430.487488 906.239075,432.979645" id="path12" stroke="none" fill="#0F0B0B" opacity="1.000000"></path><path d="M1044,459.468567 C1042.561768,459.63031 1041.145264,459.332458 1039.364502,458.99054 C1039.000122,453.832001 1039.000122,448.717529 1039.000122,442.541107 C1031.075928,442.541107 1023.546265,442.604187 1016.022949,442.414032 C1015.458496,442.39978 1014.939697,440.577393 1014.112061,439.072845 C1022.587769,439.072845 1030.57959,439.072845 1038.940674,439.072845 C1038.940674,434.270264 1038.940674,429.85379 1038.940674,425.22522 C1040.720581,425.22522 1042.125732,425.22522 1043.929199,425.22522 C1043.929199,429.626892 1043.929199,434.043793 1043.929199,439.0271 C1048.897461,439.0271 1053.49292,439.093903 1058.085449,439.006714 C1062.010986,438.932159 1065.933228,438.680878 1069.856934,438.507782 C1070.00708,439.306519 1070.157104,440.105286 1070.307129,440.904022 C1068.397217,441.650269 1066.517456,442.93045 1064.571533,443.040161 C1059.27002,443.33905 1053.934082,443.300171 1048.624268,443.086823 C1045.255371,442.951447 1043.720337,443.890381 1043.986816,447.546051 C1044.263916,451.347687 1044.03125,455.186462 1044,459.468567" id="path13" stroke="none" fill="#070303" opacity="1.000000"></path><path d="M1138.989624,454.931274 C1138.989624,445.131531 1138.989624,435.331818 1138.989624,425.266113 C1142.984741,425.266113 1146.723389,425.266113 1150.997437,425.266113 C1150.997437,436.50708 1150.997437,447.770935 1150.650757,459.58017 C1149.872314,460.061157 1149.44043,459.996735 1149.011475,459.470367 C1149.01416,448.396637 1149.01416,437.784851 1149.01416,427.32016 C1145.298706,426.171326 1145.138062,428.100555 1145.154297,430.599701 C1145.211304,439.41217 1145.133545,448.225525 1144.739258,457.055634 C1142.577515,456.358887 1140.783569,455.645081 1138.989624,454.931274" id="path14" stroke="none" fill="#060202" opacity="1.000000"></path><path d="M992.048462,473.522949 C993.472412,473.374268 994.870117,473.687805 996.630859,474.028748 C996.994141,489.195007 996.994141,504.333862 996.994141,519.735168 C995.339478,519.735168 993.935303,519.735168 992.021973,519.735168 C992.021973,504.541504 992.021973,489.263367 992.048462,473.522949 " id="path15" stroke="none" fill="#050101" opacity="1.000000"></path><path d="M1138.604492,454.789185 C1140.783569,455.645081 1142.577515,456.358887 1144.997559,457.232971 C1146.751953,458.239624 1147.880371,459.085968 1149.008789,459.932312 C1149.44043,459.996735 1149.872314,460.061157 1150.621338,460.045898 C1156.462402,463.020416 1161.129639,460.776398 1165.7854,457.743927 C1166.914795,457.00824 1168.518433,457.000427 1169.903931,456.657898 C1169.294922,457.94754 1168.955078,459.486023 1168.031372,460.484558 C1163.599365,465.275696 1157.885986,465.878357 1151.420288,465.05899 C1150.571045,464.929443 1150.116943,464.788055 1149.168701,464.546509 C1147.563599,464.016388 1146.452759,463.586426 1145.341919,463.156494 C1143.460083,461.86438 1141.578369,460.572296 1139.365234,459.187195 C1132.386108,456.434509 1126.623047,458.391602 1121.122559,462.323486 C1120.233643,462.958984 1118.737793,462.745605 1117.522461,462.924652 C1117.940796,461.838867 1118.055786,460.418121 1118.825806,459.720886 C1124.376221,454.695557 1130.752441,452.501678 1138.604492,454.789185" id="path16" stroke="none" fill="#C69290" opacity="1.000000"></path><path d="M987.473755,482.897034 C984.90564,493.873932 980.188965,503.499146 974.57312,512.713867 C973.672974,512.283203 972.962891,511.943542 972.699341,511.817444 C975.976196,501.358734 979.195801,491.082642 982.52124,480.469086 C984.230713,481.166656 985.977051,481.879395 987.473755,482.897034 " id="path17" stroke="none" fill="#0D0909" opacity="1.000000"></path><path d="M820.252075,496.296021 C822.194946,494.854187 823.911377,493.694275 825.589417,492.560333 C826.301514,493.310638 828.029907,495.131714 829.769043,496.96405 C828.156189,498.66745 826.434448,500.485901 824.525024,502.502563 C823.055664,500.56778 821.540649,498.572876 820.252075,496.296021 " id="path18" stroke="none" fill="#100B0B" opacity="1.000000"></path><path d="M1004.410156,501.079376 C1002.830688,499.701233 1001.483643,498.553223 999.997314,497.286377 C1001.977417,495.865814 1003.957642,494.445251 1006.067383,492.931702 C1006.699463,493.516907 1008.312988,495.01062 1010.676514,497.19873 C1008.541016,498.653564 1006.591919,499.981537 1004.410156,501.079376" id="path19" stroke="none" fill="#0C0707" opacity="1.000000"></path><path d="M1097.739258,425.429016 C1099.374023,427.368927 1100.7677,429.048981 1102.374512,430.985901 C1101.039551,432.40863 1099.206543,434.362305 1097.490479,436.191406 C1095.874634,434.453979 1094.042969,432.484558 1092.626343,430.961243 C1094.303711,428.96701 1095.900879,427.068115 1097.739258,425.429016 " id="path20" stroke="none" fill="#0A0505" opacity="1.000000"></path><path d="M905.247253,493.647614 C906.63385,494.951843 907.812988,495.952942 908.202332,496.283508 C906.523376,497.853027 904.850281,499.417053 903.169678,500.988129 C902.463013,500.250885 900.827393,498.544312 899.141541,496.785309 C900.258911,495.566742 901.429871,494.095184 902.833435,492.895813 C903.184631,492.595703 904.28418,493.171356 905.247253,493.647614 " id="path21" stroke="none" fill="#0A0606" opacity="1.000000"></path><path d="M1061.733643,504.782532 C1060.20874,505.684326 1058.960571,506.344849 1058.298828,506.695068 C1057.196411,502.686768 1056.164551,498.935242 1055.273804,495.696472 C1056.241211,492.391785 1057.193359,489.138672 1058.335938,485.234985 C1061.57959,485.011169 1063.962891,487.638184 1065.397339,491.01001 C1067.22998,495.317932 1067.634033,500.118561 1061.733643,504.782532" id="path22" stroke="none" fill="#FFFFFF" opacity="1.000000"></path><path d="M1026.402954,502.944763 C1026.601196,504.242432 1026.807251,505.182861 1027.032227,506.209351 C1021.067017,505.248047 1018.028076,501.747162 1018.009033,496.0448 C1017.987549,489.650452 1020.578857,486.305237 1025.972656,485.337646 C1026.877075,488.801697 1027.779541,492.257874 1028.871826,496.44162 C1028.34436,497.75885 1027.377563,500.173126 1026.402954,502.944763" id="path23" stroke="none" fill="#FFFFFF" opacity="1.000000"></path><path d="M1037.602295,518.78186 C1035.292847,516.599121 1033.34375,514.559143 1031.062988,512.171997 C1035.513184,510.872314 1038.804077,509.911194 1042.101929,508.948059 C1045.381226,509.859375 1049.025269,510.87207 1052.668213,511.884521 C1051.265015,518.191345 1045.334595,521.139709 1037.602295,518.78186" id="path24" stroke="none" fill="#FFFFFF" opacity="1.000000"></path><path d="M1034.430908,480.036011 C1031.226318,480.991821 1031.599731,478.93988 1032.615723,477.9953 C1035.016846,475.762726 1037.573975,473.092621 1040.544556,472.217896 C1045.119141,470.870819 1049.331787,472.690613 1051.983154,477.010986 C1052.6604,478.114502 1053.075439,479.378937 1053.206421,479.669922 C1049.910522,480.554688 1046.65332,482.020966 1043.349243,482.135376 C1040.527832,482.233032 1037.652832,480.778168 1034.430908,480.036011 " id="path25" stroke="none" fill="#FFFFFF" opacity="1.000000"></path><path d="M1030.272461,505.46936 C1030.228271,503.233398 1030.345093,501.364105 1030.501587,498.862061 C1033.486572,502.009094 1035.82019,504.469482 1038.287354,507.070679 C1035.530396,508.688232 1032.834961,508.702148 1030.272461,505.46936" id="path26" stroke="none" fill="#FFFFFF" opacity="1.000000"></path><path d="M1052.608521,506.853149 C1050.107422,507.394714 1047.893677,507.675537 1045.680054,507.956421 C1046.060181,508.006775 1046.44043,508.057129 1046.820557,508.107544 C1049.458252,505.694946 1052.096069,503.282288 1054.733887,500.869659 C1054.633545,500.411743 1054.533325,499.953857 1054.433105,499.495941 C1053.920654,501.86145 1053.408325,504.226929 1052.608521,506.853149 " id="path27" stroke="none" fill="#FFFFFF" opacity="1.000000"></path><path d="M1054.072754,486.769226 C1054.021362,488.716614 1053.887085,490.305298 1053.759644,491.81308 C1051.105957,489.173218 1048.845215,486.924194 1046.641846,484.732178 C1049.737549,482.490845 1050.055664,482.547272 1054.072754,486.769226" id="path28" stroke="none" fill="#FFFFFF" opacity="1.000000"></path><path d="M1030.729248,491.729919 C1029.554688,484.584076 1032.24231,482.201599 1037.412354,484.011597 C1035.516357,486.363953 1033.303223,489.109741 1030.729248,491.729919 " id="path29" stroke="none" fill="#FFFFFF" opacity="1.000000"></path><path d="M1005.269165,452.691711 C1006.032715,454.317627 1007.202637,456.219788 1006.682617,457.009186 C1005.960571,458.105682 1003.913818,458.98111 1002.536377,458.852875 C1000.0271,458.619324 997.593018,457.578369 994.550171,456.709351 C997.345459,452.303101 1000.796509,451.560608 1005.269165,452.691711" id="path30" stroke="none" fill="#FFFEFE" opacity="1.000000"></path><path d="M994.321289,432.425262 C996.574951,429.638275 998.523193,427.014526 1000.914673,424.889252 C1001.436401,424.425598 1003.541016,425.743164 1004.916748,426.240356 C1003.759766,428.167694 1003.034058,430.845093 1001.331787,431.823792 C999.402954,432.932739 996.598755,432.519104 994.321289,432.425262" id="path31" stroke="none" fill="#FFFFFF" opacity="1.000000"></path><path d="M980.721924,467.581207 C977.617798,471.151245 974.198853,472.213409 970.418213,469.650024 C968.16449,468.121887 968.480347,465.487701 970.959106,465.343323 C974.224243,465.153137 977.580688,466.530823 980.721924,467.581207" id="path32" stroke="none" fill="#FFFFFF" opacity="1.000000"></path><path d="M979.819336,449.988586 C977.34082,453.060272 974.333984,452.954529 971.348145,451.626312 C970.395752,451.202637 969.860107,449.842438 969.133789,448.910767 C970.164062,448.269257 971.330078,446.942657 972.199463,447.114777 C974.798584,447.629456 977.281738,448.730927 979.819336,449.988586" id="path33" stroke="none" fill="#FFFFFF" opacity="1.000000"></path><path d="M806.143188,490.035217 C810.494934,492.906372 810.46228,498.689026 806.395264,500.655334 C805.796387,500.944855 804.377625,500.820587 804.185608,500.449402 C803.315735,498.767792 801.971313,496.7789 802.278259,495.185852 C802.635132,493.33316 804.534607,491.777618 806.143188,490.035217" id="path34" stroke="none" fill="#FFFFFF" opacity="1.000000"></path><path d="M792.414368,457.960632 C789.789795,457.984772 787.574463,457.984772 785.039673,457.984772 C788.303345,452.006836 793.518433,450.484222 798.342285,454.182678 C796.396179,455.50647 794.609863,456.721466 792.414368,457.960632 " id="path35" stroke="none" fill="#FFFFFF" opacity="1.000000"></path><path d="M1145.280518,463.611359 C1146.452759,463.586426 1147.563599,464.016388 1148.845337,464.697784 C1149.016113,480.227753 1149.016113,495.506287 1149.016113,510.736938 C1144.745117,511.512085 1145.216064,508.766663 1145.214355,506.478333 C1145.202881,492.340973 1145.214844,478.203613 1145.280518,463.611359" id="path36" stroke="none" fill="#FFFFFF" opacity="1.000000"></path><path d="M878.817139,451.545197 C891.109497,448.891937 900.565247,449.806152 906.723145,453.996582 C899.145569,459.685272 881.363586,460.480896 874.669128,453.620697 C876.071655,452.933136 877.27002,452.345642 878.817139,451.545197 " id="path37" stroke="none" fill="#FFFEFE" opacity="1.000000"></path><path d="M932.589172,449.738953 C939.107117,449.075623 944.90155,449.850159 950.212341,453.483826 C944.403015,459.668213 927.608398,459.680481 917.159485,452.930023 C922.93634,451.764587 927.561584,450.831482 932.589172,449.738953 " id="path38" stroke="none" fill="#FFFEFE" opacity="1.000000"></path><path d="M1149.011475,459.470367 C1147.880371,459.085968 1146.751953,458.239624 1145.365234,457.215912 C1145.133545,448.225525 1145.211304,439.41217 1145.154297,430.599701 C1145.138062,428.100555 1145.298706,426.171326 1149.01416,427.32016 C1149.01416,437.784851 1149.01416,448.396637 1149.011475,459.470367 " id="path39" stroke="none" fill="#FFFFFF" opacity="1.000000"></path></g><defs visibility="visible"><linearGradient id="paint0_linear_0_1" x1="1109.62" y1="40" x2="1109.62" y2="142" gradientUnits="userSpaceOnUse" visibility="visible"><stop stop-color="#5D4573"></stop><stop offset="1" stop-color="#4B3E59"></stop></linearGradient><linearGradient id="paint1_linear_0_1" x1="1157.18" y1="54.3735" x2="1145.66" y2="54.7858" gradientUnits="userSpaceOnUse"><stop offset="0.409" stop-color="#806E91"></stop><stop offset="1" stop-color="#806E91" stop-opacity="0"></stop></linearGradient><linearGradient id="paint2_linear_0_1" x1="1063.81" y1="152.264" x2="1149.23" y2="152.264" gradientUnits="userSpaceOnUse"><stop stop-color="#D6C0EA"></stop><stop offset="1" stop-color="#DCCCED"></stop></linearGradient><linearGradient id="paint3_linear_0_1" x1="1104.31" y1="145.137" x2="1104.31" y2="151.167" gradientUnits="userSpaceOnUse"><stop stop-color="#9F8CB4"></stop><stop offset="1" stop-color="#9F8CB4" stop-opacity="0"></stop></linearGradient><linearGradient id="paint4_linear_0_1" x1="1057.37" y1="102.632" x2="1069.25" y2="102.632" gradientUnits="userSpaceOnUse"><stop stop-color="#4E4459"></stop><stop offset="1" stop-color="#453C4E"></stop></linearGradient><radialGradient id="paint5_radial_0_1" cx="0" cy="0" r="1" gradientUnits="userSpaceOnUse" gradientTransform="translate(1058.19 144.86) rotate(-90) scale(28.2429 4.97658)"><stop stop-color="#51475C"></stop><stop offset="1" stop-color="#51475C" stop-opacity="0"></stop></radialGradient><linearGradient id="paint6_linear_0_1" x1="1062.58" y1="154.597" x2="1150" y2="154.457" gradientUnits="userSpaceOnUse"><stop stop-color="#512F71"></stop><stop offset="1" stop-color="#4F2E6D"></stop></linearGradient><linearGradient id="paint7_linear_0_1" x1="1104.07" y1="526.609" x2="1028.51" y2="437.711" gradientUnits="userSpaceOnUse"><stop offset="0.375425" stop-color="#8D6FC7"></stop><stop offset="1" stop-color="#CA8280"></stop></linearGradient><linearGradient id="paint8_linear_0_1" x1="1104.07" y1="526.609" x2="1028.51" y2="437.71" gradientUnits="userSpaceOnUse"><stop offset="0.375425" stop-color="#8D6FC7"></stop><stop offset="1" stop-color="#CA8280"></stop></linearGradient><linearGradient id="paint9_linear_0_1" x1="1104.07" y1="526.609" x2="1028.51" y2="437.71" gradientUnits="userSpaceOnUse"><stop offset="0.375425" stop-color="#8D6FC7"></stop><stop offset="1" stop-color="#CA8280"></stop></linearGradient><linearGradient id="paint10_linear_0_1" x1="1104.07" y1="526.609" x2="1028.51" y2="437.711" gradientUnits="userSpaceOnUse"><stop offset="0.375425" stop-color="#8D6FC7"></stop><stop offset="1" stop-color="#CA8280"></stop></linearGradient><linearGradient id="paint11_linear_0_1" x1="1104.07" y1="526.609" x2="1028.51" y2="437.711" gradientUnits="userSpaceOnUse"><stop offset="0.375425" stop-color="#8D6FC7"></stop><stop offset="1" stop-color="#CA8280"></stop></linearGradient><linearGradient id="paint12_linear_0_1" x1="1104.07" y1="526.609" x2="1028.51" y2="437.711" gradientUnits="userSpaceOnUse"><stop offset="0.375425" stop-color="#8D6FC7"></stop><stop offset="1" stop-color="#CA8280"></stop></linearGradient><linearGradient id="paint13_linear_0_1" x1="1104.07" y1="526.609" x2="1028.51" y2="437.711" gradientUnits="userSpaceOnUse"><stop offset="0.375425" stop-color="#8D6FC7"></stop><stop offset="1" stop-color="#CA8280"></stop></linearGradient><linearGradient id="paint14_linear_0_1" x1="1104.07" y1="526.609" x2="1028.51" y2="437.711" gradientUnits="userSpaceOnUse"><stop offset="0.375425" stop-color="#8D6FC7"></stop><stop offset="1" stop-color="#CA8280"></stop></linearGradient><linearGradient id="paint15_linear_0_1" x1="1104.07" y1="526.609" x2="1028.51" y2="437.711" gradientUnits="userSpaceOnUse" visibility="visible"><stop offset="0.375425" stop-color="#8D6FC7"></stop><stop offset="1" stop-color="#CA8280"></stop></linearGradient><linearGradient id="paint16_linear_0_1" x1="0" y1="620" x2="1200" y2="620" gradientUnits="userSpaceOnUse"><stop stop-color="#CA8280"></stop><stop offset="0.7" stop-color="#8D6FC7"></stop></linearGradient><clipPath id="clip0_0_1"><rect width="1200" height="630" fill="white"></rect></clipPath></defs></svg>